
        <svg xmlns="http://www.w3.org/2000/svg" xmlns:xlink="http://www.w3.org/1999/xlink" version="1.1" width="31.88" height="32" viewBox="0 0 3230.769230769231 2653.846153846154">
			
			<g transform="scale(11.538461538461538) translate(10, 10)">
				<defs id="SvgjsDefs4609"></defs><g id="SvgjsG4610" featureKey="rootContainer" transform="matrix(1,0,0,1,0,0)" fill="#ffffff"><path xmlns="http://www.w3.org/2000/svg" fill-rule="evenodd" d=" M0,0 H260 V210 H0,0 z M2,2 H258 V208 H2,2 z M6,6 H254 V204 H6 z M8,8 H252 V202 H6,8 z "></path></g><g id="SvgjsG4611" featureKey="nameFeature-0" transform="matrix(2.9608426933018723,0,0,2.9608426933018723,40.42660434240984,20.391581538020173)" fill="#ffffff"><path d="M30.72 10 q0.56 0 0.98 0.42 t0.42 0.98 l0 26.8 q0 0.56 -0.42 0.98 t-0.98 0.42 l-3.04 0 q-0.6 0 -1 -0.42 t-0.4 -0.98 l0 -18.08 l-7.4 9.52 q-0.44 0.52 -1.12 0.52 l0 0 q-0.32 0 -0.64 -0.14 t-0.48 -0.42 l-13.12 -17.36 q-0.24 -0.28 -0.28 -0.7 t0.16 -0.76 t0.52 -0.56 t0.72 -0.22 l3.52 0 q0.68 0 1.12 0.56 l8.48 11.2 l8.28 -11.2 q0.44 -0.56 1.16 -0.56 l3.52 0 z M7.68 29.4 q0.56 0 0.98 0.4 t0.42 1 l0 7.4 q0 0.56 -0.42 0.98 t-0.98 0.42 l-3.04 0 q-0.56 0 -0.98 -0.42 t-0.42 -0.98 l0 -7.4 q0 -0.6 0.42 -1 t0.98 -0.4 l3.04 0 z M41.272 10 q0.56 0 0.98 0.42 t0.42 0.98 l0 26.8 q0 0.56 -0.42 0.98 t-0.98 0.42 l-3.04 0 q-0.56 0 -0.98 -0.42 t-0.42 -0.98 l0 -26.8 q0 -0.56 0.42 -0.98 t0.98 -0.42 l3.04 0 z M55.872 33.88 q0.6 0 1 0.42 t0.4 0.98 l0 2.92 q0 0.56 -0.4 0.98 t-1 0.42 l-9.32 0 q-0.6 0 -1 -0.42 t-0.4 -0.98 l0 -2.92 q0 -0.56 0.4 -0.98 t1 -0.42 l9.32 0 z"></path></g><g id="SvgjsG4612" featureKey="sloganFeature-0" transform="matrix(0.8335974656021878,0,0,0.8335974656021878,49.194038838771995,143.01030811456462)" fill="#ffffff"><path d="M13.057 9.941 l-0.0097656 -0.019531 l-0.0097656 -0.019531 l-0.0097656 -0.0097656 l-0.0097656 -0.0097656 q-0.01953125 -0.029296875 -0.05859375 -0.048828125 l-0.058594 -0.039063 l-0.058594 -0.029297 q-0.048828125 -0.009765625 -0.078125 -0.009765625 l-0.019531 -0.0097656 l-0.0097656 0 l-0.019531 0.0097656 l-0.019531 0 q-0.0390625 0 -0.078125 0.01953125 l-0.068359 0.029297 l-0.019531 0 l-0.0097656 0.0097656 l-4.4824 3.1738 l-4.4727 -3.1738 l-0.019531 -0.0097656 l-0.019531 0 l-0.068359 -0.029297 q-0.0390625 -0.01953125 -0.068359375 -0.01953125 l-0.019531 0 l-0.019531 -0.0097656 l-0.019531 0 l-0.019531 0.0097656 l-0.068359 0.0097656 l-0.068359 0.029297 l-0.058594 0.039063 q-0.029296875 0.029296875 -0.05859375 0.048828125 l-0.0097656 0.0097656 l-0.0097656 0.0097656 l-0.0097656 0.019531 l0 0.019531 l-0.039063 0.068359 q-0.009765625 0.0390625 -0.009765625 0.078125 l-0.0097656 0.019531 l0 0.019531 l0 9.502 q0 0.146484375 0.107421875 0.263671875 q0.1171875 0.107421875 0.2734375 0.107421875 t0.26367 -0.10742 q0.107421875 -0.1171875 0.107421875 -0.263671875 l0 -8.7793 l4.1016 2.9004 l0.019531 0.0097656 l0.0097656 0.0097656 l0.039063 0.019531 q0.078125 0.029296875 0.146484375 0.029296875 t0.15625 -0.029297 l0.029297 -0.019531 l0.019531 -0.0097656 l0.0097656 -0.0097656 l4.1016 -2.9004 l0 1.7383 l-4.3164 3.0566 l-2.5879 -1.8262 q-0.126953125 -0.087890625 -0.2734375 -0.05859375 q-0.15625 0.01953125 -0.244140625 0.146484375 t-0.068359 0.2832 q0.029296875 0.15625 0.15625 0.244140625 l2.8027 1.9824 l0.019531 0.0097656 l0.0097656 0.0097656 l0.039063 0.0097656 q0.078125 0.0390625 0.146484375 0.0390625 t0.15625 -0.039063 l0.029297 -0.0097656 l0.019531 -0.0097656 l0.0097656 -0.0097656 l4.1016 -2.9004 l0 6.1133 q0 0.146484375 0.1171875 0.263671875 q0.107421875 0.107421875 0.263671875 0.107421875 t0.26367 -0.10742 q0.107421875 -0.1171875 0.107421875 -0.263671875 l0 -9.502 l0 -0.019531 l0 -0.019531 l-0.019531 -0.078125 z M14.473 6.103999999999999 q-0.107421875 0.107421875 -0.107421875 0.263671875 l0 13.262 q0 0.146484375 0.107421875 0.263671875 q0.107421875 0.107421875 0.263671875 0.107421875 t0.26367 -0.10742 q0.107421875 -0.1171875 0.107421875 -0.263671875 l0 -13.262 q0 -0.15625 -0.107421875 -0.263671875 t-0.26367 -0.10742 t-0.26367 0.10742 z M1.7188 7.051 l0 12.578 q0 0.146484375 -0.107421875 0.263671875 q-0.1171875 0.107421875 -0.2734375 0.107421875 q-0.146484375 0 -0.263671875 -0.107421875 q-0.107421875 -0.1171875 -0.107421875 -0.263671875 l0 -13.262 q0 -0.224609375 0.1953125 -0.33203125 t0.38086 0.019531 l6.6992 4.2188 q0.126953125 0.087890625 0.166015625 0.234375 q0.029296875 0.15625 -0.048828125 0.283203125 q-0.087890625 0.13671875 -0.234375 0.166015625 q-0.15625 0.0390625 -0.283203125 -0.048828125 z M19.972621875 6.122999999999999 q-0.107421875 0.1171875 -0.107421875 0.2734375 l0 13.223 q0 0.15625 0.107421875 0.2734375 q0.1171875 0.107421875 0.2734375 0.107421875 t0.26367 -0.10742 q0.107421875 -0.1171875 0.107421875 -0.2734375 l0 -13.223 q0 -0.15625 -0.107421875 -0.2734375 q-0.107421875 -0.107421875 -0.263671875 -0.107421875 t-0.27344 0.10742 z M18.546921875 19.61914 q0 0.15625 -0.107421875 0.2734375 q-0.107421875 0.107421875 -0.263671875 0.107421875 t-0.27344 -0.10742 q-0.107421875 -0.1171875 -0.107421875 -0.2734375 l0 -13.223 q0 -0.15625 0.107421875 -0.2734375 q0.1171875 -0.107421875 0.2734375 -0.107421875 t0.26367 0.10742 q0.107421875 0.1171875 0.107421875 0.2734375 l0 13.223 z M31.166053124999998 9.18 q0.703125 0.37109375 1.220703125 1.0546875 q0.087890625 0.126953125 0.244140625 0.146484375 t0.27344 -0.068359 q0.126953125 -0.09765625 0.146484375 -0.244140625 q0.01953125 -0.15625 -0.068359375 -0.283203125 q-0.615234375 -0.8203125 -1.474609375 -1.279296875 q-0.859375 -0.44921875 -1.806640625 -0.44921875 q-1.787109375 0 -3.056640625 1.455078125 q-1.26953125 1.4453125 -1.26953125 3.486328125 q0 2.05078125 1.26953125 3.49609375 q1.26953125 1.455078125 3.056640625 1.455078125 q1.005859375 0 1.904296875 -0.5078125 t1.5234 -1.4258 q0.078125 -0.126953125 0.048828125 -0.283203125 q-0.029296875 -0.146484375 -0.15625 -0.234375 t-0.27344 -0.058594 q-0.15625 0.029296875 -0.244140625 0.15625 q-0.517578125 0.76171875 -1.25 1.181640625 t-1.5527 0.41992 q-1.484375 0 -2.529296875 -1.23046875 t-1.0449 -2.9688 q0 -1.728515625 1.044921875 -2.958984375 q1.044921875 -1.240234375 2.529296875 -1.240234375 q0.76171875 0 1.46484375 0.380859375 z M32.571953125 19.24805 q-1.3671875 0.751953125 -2.87109375 0.751953125 q-1.298828125 0 -2.48046875 -0.546875 q-1.142578125 -0.537109375 -2.03125 -1.50390625 q-1.865234375 -2.05078125 -1.865234375 -4.951171875 q0 -2.890625 1.865234375 -4.94140625 q0.888671875 -0.966796875 2.03125 -1.50390625 q1.181640625 -0.546875 2.48046875 -0.546875 q1.435546875 0 2.724609375 0.6640625 q1.2890625 0.673828125 2.197265625 1.884765625 q0.09765625 0.126953125 0.068359375 0.283203125 q-0.01953125 0.146484375 -0.146484375 0.244140625 q-0.1171875 0.087890625 -0.2734375 0.068359375 t-0.24414 -0.14648 q-0.810546875 -1.07421875 -1.943359375 -1.66015625 q-1.1328125 -0.595703125 -2.3828125 -0.595703125 q-1.142578125 0 -2.1875 0.498046875 q-1.015625 0.46875 -1.796875 1.337890625 q-1.650390625 1.8359375 -1.650390625 4.4140625 q0 2.587890625 1.650390625 4.423828125 q0.78125 0.869140625 1.796875 1.337890625 q1.044921875 0.498046875 2.1875 0.498046875 q1.337890625 0 2.51953125 -0.6640625 q1.181640625 -0.654296875 1.982421875 -1.845703125 q0.087890625 -0.126953125 0.244140625 -0.15625 q0.146484375 -0.029296875 0.2734375 0.048828125 q0.13671875 0.087890625 0.166015625 0.244140625 q0.029296875 0.146484375 -0.05859375 0.283203125 q-0.8984375 1.328125 -2.255859375 2.080078125 z M49.19496875 6.093999999999999 q-0.107421875 0.107421875 -0.107421875 0.263671875 l0 13.271 q0 0.15625 0.107421875 0.263671875 t0.26367 0.10742 t0.26367 -0.10742 t0.10742 -0.26367 l0 -13.271 q0 -0.15625 -0.107421875 -0.263671875 t-0.26367 -0.10742 t-0.26367 0.10742 z M47.32996875 6.093999999999999 q-0.107421875 0.107421875 -0.107421875 0.263671875 l0 4.6191 l-7.1875 0 q-0.15625 0 -0.263671875 0.107421875 q-0.1171875 0.107421875 -0.1171875 0.263671875 t0.11719 0.26367 q0.107421875 0.107421875 0.263671875 0.107421875 l7.1875 0 l0 1.3672 l-7.1875 0 q-0.15625 0 -0.263671875 0.107421875 q-0.1171875 0.107421875 -0.1171875 0.263671875 l0 6.1719 q0 0.15625 0.1171875 0.263671875 q0.107421875 0.107421875 0.263671875 0.107421875 q0.146484375 0 0.263671875 -0.107421875 q0.107421875 -0.107421875 0.107421875 -0.263671875 l0 -5.791 l6.8164 0 l0 5.791 q0 0.15625 0.107421875 0.263671875 t0.26367 0.10742 t0.26367 -0.10742 t0.10742 -0.26367 l0 -13.271 q0 -0.15625 -0.107421875 -0.263671875 t-0.26367 -0.10742 t-0.26367 0.10742 z M38.54096875 19.62891 q0 0.15625 -0.1171875 0.263671875 q-0.107421875 0.107421875 -0.263671875 0.107421875 t-0.26367 -0.10742 t-0.10742 -0.26367 l0 -13.271 q0 -0.15625 0.107421875 -0.263671875 t0.26367 -0.10742 t0.26367 0.10742 q0.1171875 0.107421875 0.1171875 0.263671875 l0 13.271 z M61.4238125 16.2598 q-0.107421875 0.1171875 -0.263671875 0.1171875 l-4.0625 0 l-1.6016 3.4082 q-0.107421875 0.21484375 -0.341796875 0.21484375 q-0.087890625 0 -0.166015625 -0.029296875 q-0.13671875 -0.068359375 -0.185546875 -0.21484375 q-0.05859375 -0.146484375 0.009765625 -0.283203125 l1.6992 -3.6328 q0.107421875 -0.21484375 0.341796875 -0.21484375 l4.3066 0 q0.15625 0 0.263671875 0.107421875 t0.10742 0.26367 t-0.10742 0.26367 z M66.9613125 20.10742 q-0.244140625 0 -0.341796875 -0.224609375 l-5.8105 -13.213 q-0.05859375 -0.146484375 -0.009765625 -0.29296875 q0.05859375 -0.146484375 0.205078125 -0.205078125 q0.13671875 -0.05859375 0.283203125 -0.009765625 q0.146484375 0.05859375 0.21484375 0.205078125 l5.8008 13.213 q0.068359375 0.146484375 0.009765625 0.283203125 q-0.05859375 0.146484375 -0.205078125 0.21484375 q-0.068359375 0.029296875 -0.146484375 0.029296875 z M55.9551125 13.7305 l2.8027 -6.377 l2.8027 6.377 l-5.6055 0 z M59.0996125 6.26 l-0.0097656 -0.019531 l-0.019531 -0.019531 l-0.019531 -0.039063 l-0.029297 -0.029297 l-0.029297 -0.029297 l-0.039063 -0.019531 l-0.019531 -0.019531 l-0.019531 -0.0097656 l-0.0097656 -0.0097656 l-0.039063 -0.0097656 l-0.048828 -0.0097656 l-0.029297 0 l-0.029297 -0.0097656 l-0.029297 0.0097656 l-0.029297 0 l-0.039063 0.0097656 l-0.039063 0.0097656 l-0.0097656 0.0097656 l-0.029297 0.0097656 l-0.019531 0.019531 l-0.039063 0.019531 l-0.029297 0.029297 l-0.029297 0.029297 l-0.019531 0.039063 l-0.019531 0.019531 l-0.0097656 0.019531 l-5.8105 13.213 q-0.05859375 0.146484375 0 0.29296875 t0.19531 0.20508 q0.078125 0.029296875 0.15625 0.029296875 q0.244140625 0 0.341796875 -0.224609375 l2.3242 -5.293 l6.2695 0 l2.334 5.293 q0.09765625 0.224609375 0.341796875 0.224609375 q0.078125 0 0.146484375 -0.029296875 q0.146484375 -0.05859375 0.205078125 -0.205078125 q0.048828125 -0.146484375 -0.009765625 -0.29296875 z M81.52384375 8.711 q0.166015625 0 0.2734375 -0.1171875 q0.107421875 -0.107421875 0.107421875 -0.263671875 t-0.10742 -0.27344 q-0.107421875 -0.107421875 -0.2734375 -0.107421875 l-9.3066 0 q-0.166015625 0 -0.2734375 0.107421875 q-0.107421875 0.1171875 -0.107421875 0.2734375 l0 3.6133 q0 0.166015625 0.107421875 0.2734375 t0.27344 0.10742 l9.3066 0 q0.166015625 0 0.2734375 -0.107421875 t0.10742 -0.27344 q0 -0.15625 -0.107421875 -0.263671875 t-0.27344 -0.10742 l-8.9258 0 l0 -2.8613 l8.9258 0 z M70.31254375 19.23828 q-0.15625 0 -0.2734375 0.1171875 q-0.107421875 0.107421875 -0.107421875 0.263671875 t0.10742 0.27344 q0.1171875 0.107421875 0.2734375 0.107421875 l11.211 0 q0.166015625 0 0.2734375 -0.107421875 q0.107421875 -0.1171875 0.107421875 -0.2734375 t-0.10742 -0.26367 q-0.107421875 -0.1171875 -0.2734375 -0.1171875 l-11.211 0 z M81.79684375 17.9102 q-0.107421875 0.107421875 -0.2734375 0.107421875 l-11.211 0 q-0.15625 0 -0.2734375 -0.107421875 q-0.107421875 -0.107421875 -0.107421875 -0.2734375 l0 -11.26 q0 -0.15625 0.107421875 -0.263671875 q0.1171875 -0.1171875 0.2734375 -0.1171875 l11.211 0 q0.166015625 0 0.2734375 0.1171875 q0.107421875 0.107421875 0.107421875 0.263671875 t-0.10742 0.27344 q-0.107421875 0.107421875 -0.2734375 0.107421875 l-10.83 0 l0 10.508 l1.1426 0 l0 -3.6816 q0 -0.166015625 0.107421875 -0.2734375 t0.27344 -0.10742 q0.15625 0 0.263671875 0.107421875 q0.1171875 0.107421875 0.1171875 0.2734375 l0 3.6816 l8.9258 0 q0.166015625 0 0.2734375 0.107421875 t0.10742 0.26367 q0 0.166015625 -0.107421875 0.2734375 z M96.1351875 16.0547 q0.15625 0 0.263671875 -0.107421875 q0.1171875 -0.107421875 0.1171875 -0.263671875 t-0.11719 -0.26367 q-0.107421875 -0.107421875 -0.263671875 -0.107421875 l-7.334 0 q-0.15625 0 -0.263671875 0.107421875 t-0.10742 0.26367 t0.10742 0.26367 t0.26367 0.10742 l7.334 0 z M96.2131875 17.9883 q0.15625 0 0.263671875 -0.107421875 q0.107421875 -0.1171875 0.107421875 -0.263671875 q0 -0.15625 -0.107421875 -0.263671875 q-0.107421875 -0.1171875 -0.263671875 -0.1171875 l-8.8574 0 l0 -10.82 q0 -0.146484375 -0.107421875 -0.263671875 q-0.1171875 -0.107421875 -0.263671875 -0.107421875 q-0.15625 0 -0.263671875 0.107421875 q-0.1171875 0.1171875 -0.1171875 0.263671875 l0 11.201 q0 0.146484375 0.1171875 0.263671875 q0.107421875 0.107421875 0.263671875 0.107421875 l9.2285 0 z M96.3981875 19.89258 q-0.107421875 0.107421875 -0.263671875 0.107421875 l-11.025 0 q-0.15625 0 -0.263671875 -0.107421875 t-0.10742 -0.26367 l0 -13.271 q0 -0.15625 0.107421875 -0.263671875 t0.26367 -0.10742 t0.26367 0.10742 q0.1171875 0.107421875 0.1171875 0.263671875 l0 12.891 l10.645 0 q0.15625 0 0.263671875 0.1171875 q0.1171875 0.107421875 0.1171875 0.263671875 t-0.11719 0.26367 z M116.49065625 16.0547 q0.15625 0 0.263671875 -0.107421875 q0.1171875 -0.107421875 0.1171875 -0.263671875 t-0.11719 -0.26367 q-0.107421875 -0.107421875 -0.263671875 -0.107421875 l-7.334 0 q-0.15625 0 -0.263671875 0.107421875 t-0.10742 0.26367 t0.10742 0.26367 t0.26367 0.10742 l7.334 0 z M116.56865625 17.9883 q0.15625 0 0.263671875 -0.107421875 q0.107421875 -0.1171875 0.107421875 -0.263671875 q0 -0.15625 -0.107421875 -0.263671875 q-0.107421875 -0.1171875 -0.263671875 -0.1171875 l-8.8574 0 l0 -10.82 q0 -0.146484375 -0.107421875 -0.263671875 q-0.1171875 -0.107421875 -0.263671875 -0.107421875 q-0.15625 0 -0.263671875 0.107421875 q-0.1171875 0.1171875 -0.1171875 0.263671875 l0 11.201 q0 0.146484375 0.1171875 0.263671875 q0.107421875 0.107421875 0.263671875 0.107421875 l9.2285 0 z M116.75365625 19.89258 q-0.107421875 0.107421875 -0.263671875 0.107421875 l-11.025 0 q-0.15625 0 -0.263671875 -0.107421875 t-0.10742 -0.26367 l0 -13.271 q0 -0.15625 0.107421875 -0.263671875 t0.26367 -0.10742 t0.26367 0.10742 q0.1171875 0.107421875 0.1171875 0.263671875 l0 12.891 l10.645 0 q0.15625 0 0.263671875 0.1171875 q0.1171875 0.107421875 0.1171875 0.263671875 t-0.11719 0.26367 z M128.542953125 16.2598 q-0.107421875 0.1171875 -0.263671875 0.1171875 l-4.0625 0 l-1.6016 3.4082 q-0.107421875 0.21484375 -0.341796875 0.21484375 q-0.087890625 0 -0.166015625 -0.029296875 q-0.13671875 -0.068359375 -0.185546875 -0.21484375 q-0.05859375 -0.146484375 0.009765625 -0.283203125 l1.6992 -3.6328 q0.107421875 -0.21484375 0.341796875 -0.21484375 l4.3066 0 q0.15625 0 0.263671875 0.107421875 t0.10742 0.26367 t-0.10742 0.26367 z M134.080453125 20.10742 q-0.244140625 0 -0.341796875 -0.224609375 l-5.8105 -13.213 q-0.05859375 -0.146484375 -0.009765625 -0.29296875 q0.05859375 -0.146484375 0.205078125 -0.205078125 q0.13671875 -0.05859375 0.283203125 -0.009765625 q0.146484375 0.05859375 0.21484375 0.205078125 l5.8008 13.213 q0.068359375 0.146484375 0.009765625 0.283203125 q-0.05859375 0.146484375 -0.205078125 0.21484375 q-0.068359375 0.029296875 -0.146484375 0.029296875 z M123.074253125 13.7305 l2.8027 -6.377 l2.8027 6.377 l-5.6055 0 z M126.218753125 6.26 l-0.0097656 -0.019531 l-0.019531 -0.019531 l-0.019531 -0.039063 l-0.029297 -0.029297 l-0.029297 -0.029297 l-0.039063 -0.019531 l-0.019531 -0.019531 l-0.019531 -0.0097656 l-0.0097656 -0.0097656 l-0.039063 -0.0097656 l-0.048828 -0.0097656 l-0.029297 0 l-0.029297 -0.0097656 l-0.029297 0.0097656 l-0.029297 0 l-0.039063 0.0097656 l-0.039063 0.0097656 l-0.0097656 0.0097656 l-0.029297 0.0097656 l-0.019531 0.019531 l-0.039063 0.019531 l-0.029297 0.029297 l-0.029297 0.029297 l-0.019531 0.039063 l-0.019531 0.019531 l-0.0097656 0.019531 l-5.8105 13.213 q-0.05859375 0.146484375 0 0.29296875 t0.19531 0.20508 q0.078125 0.029296875 0.15625 0.029296875 q0.244140625 0 0.341796875 -0.224609375 l2.3242 -5.293 l6.2695 0 l2.334 5.293 q0.09765625 0.224609375 0.341796875 0.224609375 q0.078125 0 0.146484375 -0.029296875 q0.146484375 -0.05859375 0.205078125 -0.205078125 q0.048828125 -0.146484375 -0.009765625 -0.29296875 z M146.981984375 8.662 q0.107421875 0.13671875 0.283203125 0.13671875 q0.13671875 0 0.234375 -0.09765625 q0.1171875 -0.09765625 0.13671875 -0.25390625 q0.009765625 -0.15625 -0.087890625 -0.2734375 l-1.7676 -2.0508 q-0.107421875 -0.1171875 -0.263671875 -0.126953125 q-0.146484375 -0.009765625 -0.263671875 0.087890625 t-0.13672 0.25391 q-0.009765625 0.15625 0.09765625 0.2734375 z M146.981984375 11.7773 q0.107421875 0.126953125 0.283203125 0.126953125 q0.13671875 0 0.234375 -0.087890625 q0.1171875 -0.09765625 0.13671875 -0.25390625 q0.009765625 -0.15625 -0.087890625 -0.2734375 l-4.4434 -5.166 q-0.107421875 -0.1171875 -0.25390625 -0.126953125 q-0.15625 -0.009765625 -0.2734375 0.087890625 t-0.12695 0.25391 q-0.01953125 0.15625 0.087890625 0.2734375 z M146.981984375 14.8926 q0.107421875 0.126953125 0.283203125 0.126953125 q0.13671875 0 0.234375 -0.087890625 q0.1171875 -0.09765625 0.13671875 -0.25390625 q0.009765625 -0.15625 -0.087890625 -0.2734375 l-7.1191 -8.2813 q-0.107421875 -0.1171875 -0.25390625 -0.126953125 q-0.15625 -0.009765625 -0.2734375 0.087890625 t-0.12695 0.25391 t0.087891 0.27344 z M149.188984375 19.62891 q0 0.25390625 -0.244140625 0.3515625 q-0.05859375 0.01953125 -0.126953125 0.01953125 q-0.17578125 0 -0.283203125 -0.126953125 l-10.732 -12.5 l0 12.256 q0 0.15625 -0.1171875 0.263671875 q-0.107421875 0.107421875 -0.263671875 0.107421875 t-0.26367 -0.10742 t-0.10742 -0.26367 l0 -13.262 q0 -0.263671875 0.244140625 -0.3515625 t0.41016 0.10742 l10.742 12.5 l0 -12.256 q0 -0.15625 0.107421875 -0.263671875 t0.26367 -0.10742 t0.26367 0.10742 t0.10742 0.26367 l0 13.262 z M163.4878125 11.2207 q0 -1.85546875 -1.2890625 -3.173828125 t-3.1055 -1.3184 l-4.502 0 l0 10.625 q0.09765625 -0.068359375 0.1953125 -0.068359375 l3.584 0 q1.2890625 0 2.197265625 -0.888671875 q0.908203125 -0.8984375 0.908203125 -2.158203125 l0 -2.5 q0 -1.25 -0.908203125 -2.1484375 q-0.908203125 -0.888671875 -2.197265625 -0.888671875 l-2.0898 0 q-0.15625 0 -0.263671875 -0.1171875 q-0.107421875 -0.107421875 -0.107421875 -0.263671875 q0 -0.146484375 0.107421875 -0.263671875 q0.107421875 -0.107421875 0.263671875 -0.107421875 l2.0898 0 q1.591796875 0 2.724609375 1.11328125 q1.123046875 1.11328125 1.123046875 2.67578125 l0 2.5 q0 1.572265625 -1.123046875 2.685546875 q-1.1328125 1.11328125 -2.724609375 1.11328125 l-3.584 0 q-0.09765625 0 -0.1953125 -0.068359375 l0 1.2793 l4.502 0 q1.81640625 0 3.10546875 -1.30859375 q1.2890625 -1.318359375 1.2890625 -3.173828125 l0 -3.5449 z M164.2308125 14.7656 q0 2.16796875 -1.50390625 3.701171875 t-3.6328 1.5332 l-4.873 0 q-0.15625 0 -0.263671875 -0.107421875 q-0.1171875 -0.107421875 -0.1171875 -0.263671875 l0 -13.271 q0 -0.15625 0.1171875 -0.263671875 q0.107421875 -0.107421875 0.263671875 -0.107421875 l4.873 0 q2.12890625 0 3.6328125 1.533203125 t1.5039 3.7012 l0 3.5449 z M152.7266125 19.62891 q0 0.15625 -0.1171875 0.263671875 q-0.107421875 0.107421875 -0.263671875 0.107421875 t-0.26367 -0.10742 t-0.10742 -0.26367 l0 -13.135 q0 -0.15625 0.107421875 -0.263671875 t0.26367 -0.10742 t0.26367 0.10742 q0.1171875 0.107421875 0.1171875 0.263671875 l0 13.135 z M178.61759375 8.711 q0.166015625 0 0.2734375 -0.1171875 q0.107421875 -0.107421875 0.107421875 -0.263671875 t-0.10742 -0.27344 q-0.107421875 -0.107421875 -0.2734375 -0.107421875 l-9.3066 0 q-0.166015625 0 -0.2734375 0.107421875 q-0.107421875 0.1171875 -0.107421875 0.2734375 l0 3.6133 q0 0.166015625 0.107421875 0.2734375 t0.27344 0.10742 l9.3066 0 q0.166015625 0 0.2734375 -0.107421875 t0.10742 -0.27344 q0 -0.15625 -0.107421875 -0.263671875 t-0.27344 -0.10742 l-8.9258 0 l0 -2.8613 l8.9258 0 z M167.40629375 19.23828 q-0.15625 0 -0.2734375 0.1171875 q-0.107421875 0.107421875 -0.107421875 0.263671875 t0.10742 0.27344 q0.1171875 0.107421875 0.2734375 0.107421875 l11.211 0 q0.166015625 0 0.2734375 -0.107421875 q0.107421875 -0.1171875 0.107421875 -0.2734375 t-0.10742 -0.26367 q-0.107421875 -0.1171875 -0.2734375 -0.1171875 l-11.211 0 z M178.89059375 17.9102 q-0.107421875 0.107421875 -0.2734375 0.107421875 l-11.211 0 q-0.15625 0 -0.2734375 -0.107421875 q-0.107421875 -0.107421875 -0.107421875 -0.2734375 l0 -11.26 q0 -0.15625 0.107421875 -0.263671875 q0.1171875 -0.1171875 0.2734375 -0.1171875 l11.211 0 q0.166015625 0 0.2734375 0.1171875 q0.107421875 0.107421875 0.107421875 0.263671875 t-0.10742 0.27344 q-0.107421875 0.107421875 -0.2734375 0.107421875 l-10.83 0 l0 10.508 l1.1426 0 l0 -3.6816 q0 -0.166015625 0.107421875 -0.2734375 t0.27344 -0.10742 q0.15625 0 0.263671875 0.107421875 q0.1171875 0.107421875 0.1171875 0.2734375 l0 3.6816 l8.9258 0 q0.166015625 0 0.2734375 0.107421875 t0.10742 0.26367 q0 0.166015625 -0.107421875 0.2734375 z M191.7339375 8.623 q0.15625 0 0.263671875 -0.107421875 t0.10742 -0.26367 t-0.10742 -0.26367 q-0.107421875 -0.1171875 -0.263671875 -0.1171875 l-6.416 0 q-0.693359375 0 -1.181640625 0.48828125 t-0.48828 1.1816 l0 0.27344 q0 0.68359375 0.48828125 1.171875 q0.48828125 0.498046875 1.181640625 0.498046875 l2.002 0 q0.15625 0 0.2734375 -0.1171875 q0.107421875 -0.107421875 0.107421875 -0.263671875 t-0.10742 -0.26367 q-0.1171875 -0.107421875 -0.2734375 -0.107421875 l-2.002 0 q-0.380859375 0 -0.654296875 -0.2734375 q-0.263671875 -0.263671875 -0.263671875 -0.64453125 l0 -0.27344 q0 -0.380859375 0.263671875 -0.64453125 q0.2734375 -0.2734375 0.654296875 -0.2734375 l6.416 0 z M182.9160375 17.3633 q-0.15625 0 -0.263671875 0.107421875 t-0.10742 0.26367 t0.10742 0.26367 q0.107421875 0.1171875 0.263671875 0.1171875 l6.416 0 q0.693359375 0 1.181640625 -0.48828125 q0.48828125 -0.498046875 0.48828125 -1.181640625 l0 -0.27344 q0 -0.68359375 -0.48828125 -1.171875 q-0.48828125 -0.498046875 -1.181640625 -0.498046875 l-2.0117 0 q-0.146484375 0 -0.263671875 0.1171875 q-0.107421875 0.107421875 -0.107421875 0.263671875 t0.10742 0.26367 q0.1171875 0.107421875 0.263671875 0.107421875 l2.0117 0 q0.380859375 0 0.654296875 0.2734375 q0.263671875 0.263671875 0.263671875 0.64453125 l0 0.27344 q0 0.380859375 -0.263671875 0.64453125 q-0.2734375 0.2734375 -0.654296875 0.2734375 l-6.416 0 z M192.9059375 16.6211 q0 1.396484375 -0.99609375 2.392578125 q-0.986328125 0.986328125 -2.3828125 0.986328125 l-6.6309 0 q-0.15625 0 -0.263671875 -0.107421875 q-0.107421875 -0.1171875 -0.107421875 -0.263671875 q0 -0.15625 0.107421875 -0.2734375 q0.107421875 -0.107421875 0.263671875 -0.107421875 l6.6309 0 q1.083984375 0 1.85546875 -0.771484375 t0.77148 -1.8555 l0 -0.625 q0 -1.083984375 -0.771484375 -1.85546875 t-1.8555 -0.77148 l-4.6777 0 q-0.068359375 0 -0.146484375 -0.0390625 q-1.25 -0.166015625 -2.080078125 -1.11328125 q-0.849609375 -0.95703125 -0.849609375 -2.2265625 l0 -0.625 q0 -1.396484375 0.986328125 -2.392578125 q0.99609375 -0.986328125 2.392578125 -0.986328125 l6.6211 0 q0.15625 0 0.2734375 0.107421875 q0.107421875 0.107421875 0.107421875 0.263671875 t-0.10742 0.27344 q-0.1171875 0.107421875 -0.2734375 0.107421875 l-6.6211 0 q-1.083984375 0 -1.85546875 0.771484375 t-0.77148 1.8555 l0 0.625 q0 1.083984375 0.771484375 1.85546875 t1.8555 0.77148 l4.668 0 q0.078125 0 0.15625 0.0390625 q1.240234375 0.166015625 2.080078125 1.11328125 q0.849609375 0.95703125 0.849609375 2.2265625 l0 0.625 z"></path></g>
			</g>
		</svg>
	