<svg width="800" height="579" viewBox="0 0 800 579" fill="none" xmlns="http://www.w3.org/2000/svg">
<path d="M311.88 456.949L488.65 460.322L503.182 578.083H296.555L311.792 456.949H311.88Z" fill="#F2F2F2"/>
<path d="M311.881 456.949L307.301 493.604H492.878L488.739 460.322L311.969 456.949H311.881Z" fill="#CCCCCC"/>
<path d="M763.45 38.3047H36.4655C16.3758 38.3047 0.0898438 52.1651 0.0898438 69.2627V454.251C0.0898438 471.349 16.3758 485.209 36.4655 485.209H763.45C783.54 485.209 799.826 471.349 799.826 454.251V69.2627C799.826 52.1651 783.54 38.3047 763.45 38.3047Z" fill="white"/>
<path d="M0 36.5078V422.921H800V36.5078H0ZM18.8485 56.4469H777.629L675.9 374.722L107.277 343.015L18.8485 56.5218V56.4469Z" fill="#5C5C5C"/>
<path d="M758.516 0H41.3961C18.5337 0 0 15.7733 0 35.2307V152.391C0 171.849 18.5337 187.622 41.3961 187.622H758.516C781.378 187.622 799.912 171.849 799.912 152.391V35.2307C799.912 15.7733 781.378 0 758.516 0Z" fill="#5C5C5C"/>
<path d="M765.956 27.2344H30.6367V391.49H765.956V27.2344Z" fill="#ECECEC"/>
<path d="M556.822 560.32H243.093C239.737 560.32 237.016 562.636 237.016 565.492V572.988C237.016 575.845 239.737 578.16 243.093 578.16H556.822C560.178 578.16 562.899 575.845 562.899 572.988V565.492C562.899 562.636 560.178 560.32 556.822 560.32Z" fill="white"/>
<path d="M769.362 30.6367H27.2344V391.488H769.362V30.6367Z" fill="#607D8B"/>
<path d="M145.872 29.8359H27.4375V390.988H145.872V29.8359Z" fill="#455A64"/>
<path d="M146.383 105.531H27.2344V119.148H146.383V105.531Z" fill="#B0BEC5"/>
<path d="M146.383 122.555H27.2344V132.767H146.383V122.555Z" fill="#B0BEC5"/>
<path d="M146.383 136.172H27.2344V149.789H146.383V136.172Z" fill="#E6EE9C"/>
<path d="M146.383 153.191H27.2344V163.404H146.383V153.191Z" fill="#B0BEC5"/>
<path d="M146.383 166.809H27.2344V177.021H146.383V166.809Z" fill="#B0BEC5"/>
<path d="M146.383 183.832H27.2344V194.045H146.383V183.832Z" fill="#B0BEC5"/>
<path d="M146.383 197.449H27.2344V207.662H146.383V197.449Z" fill="#B0BEC5"/>
<path d="M146.383 214.469H27.2344V224.682H146.383V214.469Z" fill="#B0BEC5"/>
<path d="M146.383 228.086H27.2344V238.299H146.383V228.086Z" fill="#B0BEC5"/>
<path d="M645.857 327.422H152.982C152.865 327.422 152.77 327.49 152.77 327.573V383.642C152.77 383.725 152.865 383.793 152.982 383.793H645.857C645.974 383.793 646.069 383.725 646.069 383.642V327.573C646.069 327.49 645.974 327.422 645.857 327.422Z" fill="#F5F5F5"/>
<path d="M168.789 326.668H179.402V359.583H168.789V326.668Z" fill="#37474F"/>
<path d="M189.914 326.668H200.527V359.583H189.914V326.668Z" fill="#37474F"/>
<path d="M232.156 326.59H242.769V359.505H232.156V326.59Z" fill="#37474F"/>
<path d="M253.168 326.738H263.781V359.653H253.168V326.738Z" fill="#37474F"/>
<path d="M274.5 326.668H285.113V359.583H274.5V326.668Z" fill="#37474F"/>
<path d="M173.039 358.293V384.322H174.843V358.293H173.039Z" fill="#37474F"/>
<path d="M194.371 358.145V384.174H196.175V358.145H194.371Z" fill="#37474F"/>
<path d="M236.613 358.293V384.322H238.417V358.293H236.613Z" fill="#37474F"/>
<path d="M257.625 358.293V384.322H259.429V358.293H257.625Z" fill="#37474F"/>
<path d="M279.168 358.219V384.248H280.972V358.219H279.168Z" fill="#37474F"/>
<path d="M215.492 326.59V384.247H217.296V326.59H215.492Z" fill="#37474F"/>
<path d="M298.168 326.59V384.247H299.972V326.59H298.168Z" fill="#37474F"/>
<path d="M313.449 326.668H324.062V359.583H313.449V326.668Z" fill="#37474F"/>
<path d="M334.57 326.668H345.183V359.583H334.57V326.668Z" fill="#37474F"/>
<path d="M317.801 358.293V384.322H319.605V358.293H317.801Z" fill="#37474F"/>
<path d="M339.133 358.145V384.174H340.937V358.145H339.133Z" fill="#37474F"/>
<path d="M153.403 326.363C152.341 326.363 151.492 326.969 151.492 327.65V383.113C151.492 383.794 152.341 384.399 153.403 384.399H358.343C359.404 384.399 360.253 383.794 360.253 383.113V327.65C360.253 326.969 359.404 326.363 358.343 326.363H153.403ZM153.403 327.65H358.343V383.113H153.403V327.65Z" fill="black"/>
<path d="M374.902 326.59H385.516V359.505H374.902V326.59Z" fill="#37474F"/>
<path d="M395.809 326.738H406.422V359.653H395.809V326.738Z" fill="#37474F"/>
<path d="M417.25 326.668H427.863V359.583H417.25V326.668Z" fill="#37474F"/>
<path d="M379.355 358.293V384.322H381.16V358.293H379.355Z" fill="#37474F"/>
<path d="M400.266 358.293V384.322H402.07V358.293H400.266Z" fill="#37474F"/>
<path d="M421.812 358.219V384.248H423.617V358.219H421.812Z" fill="#37474F"/>
<path d="M440.914 326.59V384.247H442.718V326.59H440.914Z" fill="#37474F"/>
<path d="M456.195 326.668H466.808V359.583H456.195V326.668Z" fill="#37474F"/>
<path d="M477.316 326.668H487.93V359.583H477.316V326.668Z" fill="#37474F"/>
<path d="M460.441 358.293V384.322H462.246V358.293H460.441Z" fill="#37474F"/>
<path d="M481.879 358.145V384.174H483.683V358.145H481.879Z" fill="#37474F"/>
<path d="M359.828 326.363C359.085 326.363 358.555 326.969 358.555 327.65V383.113C358.555 383.794 359.192 384.399 359.828 384.399H501.939C502.681 384.399 503.212 383.794 503.212 383.113V327.65C503.212 326.969 502.575 326.363 501.939 326.363H359.828ZM359.828 327.65H501.939V383.113H359.828V327.65Z" fill="black"/>
<path d="M518.496 326.59H529.109V359.505H518.496V326.59Z" fill="#37474F"/>
<path d="M539.402 326.738H550.016V359.653H539.402V326.738Z" fill="#37474F"/>
<path d="M560.844 326.668H571.457V359.583H560.844V326.668Z" fill="#37474F"/>
<path d="M522.953 358.293V384.322H524.757V358.293H522.953Z" fill="#37474F"/>
<path d="M543.859 358.293V384.322H545.664V358.293H543.859Z" fill="#37474F"/>
<path d="M565.406 358.219V384.248H567.21V358.219H565.406Z" fill="#37474F"/>
<path d="M584.512 326.59V384.247H586.316V326.59H584.512Z" fill="#37474F"/>
<path d="M599.793 326.668H610.406V359.583H599.793V326.668Z" fill="#37474F"/>
<path d="M620.914 326.668H631.527V359.583H620.914V326.668Z" fill="#37474F"/>
<path d="M604.035 358.293V384.322H605.839V358.293H604.035Z" fill="#37474F"/>
<path d="M625.477 358.145V384.174H627.281V358.145H625.477Z" fill="#37474F"/>
<path d="M503.426 326.363C502.683 326.363 502.152 326.969 502.152 327.65V383.113C502.152 383.794 502.789 384.399 503.426 384.399H645.536C646.279 384.399 646.81 383.794 646.81 383.113V327.65C646.81 326.969 646.173 326.363 645.536 326.363H503.426ZM503.426 327.65H645.536V383.113H503.426V327.65Z" fill="black"/>
<path d="M646.069 320.16H152.77V327.424H646.069V320.16Z" fill="#CFD8DC"/>
<path d="M646.808 267.777H153.191V315.887H646.808V267.777Z" fill="#423D2F"/>
<path d="M168.264 270.672H164.414V310.699H168.264V270.672Z" fill="#908E80"/>
<path d="M191.791 270.672H187.941V310.699H191.791V270.672Z" fill="#908E80"/>
<path d="M215.209 270.672H211.359V310.699H215.209V270.672Z" fill="#908E80"/>
<path d="M238.736 270.672H234.887V310.699H238.736V270.672Z" fill="#908E80"/>
<path d="M262.154 270.672H258.305V310.699H262.154V270.672Z" fill="#908E80"/>
<path d="M285.682 270.672H281.832V310.699H285.682V270.672Z" fill="#908E80"/>
<path d="M309.1 270.672H305.25V310.699H309.1V270.672Z" fill="#908E80"/>
<path d="M332.627 270.672H328.777V310.699H332.627V270.672Z" fill="#908E80"/>
<path d="M356.045 270.672H352.195V310.699H356.045V270.672Z" fill="#908E80"/>
<path d="M379.572 270.672H375.723V310.699H379.572V270.672Z" fill="#908E80"/>
<path d="M402.994 270.672H399.145V310.699H402.994V270.672Z" fill="#908E80"/>
<path d="M426.518 270.672H422.668V310.699H426.518V270.672Z" fill="#908E80"/>
<path d="M449.94 270.672H446.09V310.699H449.94V270.672Z" fill="#908E80"/>
<path d="M473.463 270.672H469.613V310.699H473.463V270.672Z" fill="#908E80"/>
<path d="M496.881 270.672H493.031V310.699H496.881V270.672Z" fill="#908E80"/>
<path d="M520.408 270.672H516.559V310.699H520.408V270.672Z" fill="#908E80"/>
<path d="M543.826 270.672H539.977V310.699H543.826V270.672Z" fill="#908E80"/>
<path d="M567.358 270.672H563.508V310.699H567.358V270.672Z" fill="#908E80"/>
<path d="M590.776 270.672H586.926V310.699H590.776V270.672Z" fill="#908E80"/>
<path d="M614.299 270.672H610.449V310.699H614.299V270.672Z" fill="#908E80"/>
<path d="M637.717 270.672H633.867V310.699H637.717V270.672Z" fill="#908E80"/>
<path d="M769.362 27.2344H653.617V391.49H769.362V27.2344Z" fill="#3E464B"/>
<path d="M759.151 27.2344H663.832V388.086H759.151V27.2344Z" fill="#577280"/>
<path d="M759.151 30.6367H663.832V37.4452H759.151V30.6367Z" fill="#515C61"/>
<path d="M759.151 381.277H663.832V388.086H759.151V381.277Z" fill="#515C61"/>
<path d="M725.109 37.4453H697.875V381.275H725.109V37.4453Z" fill="black"/>
<path d="M653.617 391.491H769.362V388.055H653.617V391.491Z" fill="#607D8B"/>
<path d="M653.617 30.6707H769.362V27.2344H653.617V30.6707Z" fill="#607D8B"/>
<path d="M722.605 129.363H700.38C695.236 129.363 691.066 132.832 691.066 137.111V182.892C691.066 187.171 695.236 190.64 700.38 190.64H722.605C727.748 190.64 731.917 187.171 731.917 182.892V137.111C731.917 132.832 727.748 129.363 722.605 129.363Z" fill="#842121"/>
<path d="M723.846 166.809H699.138C698.44 166.809 697.875 167.544 697.875 168.452V178.782C697.875 179.69 698.44 180.426 699.138 180.426H723.846C724.544 180.426 725.109 179.69 725.109 178.782V168.452C725.109 167.544 724.544 166.809 723.846 166.809Z" fill="#424242"/>
<path d="M189.613 312.454H189.393C174.208 312.301 170.467 300.159 167.056 289.469C164.195 280.381 161.554 271.752 153.191 271.599L153.412 267.781C166.066 268.087 169.367 278.549 172.448 288.629C176.189 300.618 179.38 308.407 189.503 308.56H189.613C200.176 308.56 206.558 299.243 212.61 290.309C218.992 280.916 225.594 271.294 237.918 271.065C251.233 271.447 254.314 281.145 257.064 289.698C260.366 300.007 263.336 306.803 274.01 306.803H274.23C283.253 307.338 287.764 299.167 292.716 290.614C298.107 281.298 304.269 270.759 317.694 270.759C318.024 270.759 318.354 270.759 318.684 270.759C331.118 270.759 336.84 280.305 342.342 289.545C346.963 297.41 351.364 304.818 358.957 304.818C358.957 304.818 359.177 304.818 359.287 304.818C366.769 304.818 370.621 297.029 374.472 289.545C378.653 281.145 383.054 272.439 393.398 271.981C404.511 272.058 409.793 279.465 414.855 286.567C419.366 292.905 423.657 298.861 431.14 298.861C431.14 298.861 431.25 298.861 431.36 298.861C438.402 298.785 440.273 293.898 442.253 286.414C444.014 280.076 445.884 272.898 455.347 272.898C455.568 272.898 455.788 272.898 456.008 272.898C467.781 273.279 469.652 281.45 471.083 288.018C472.623 294.661 473.833 297.792 478.235 297.792H478.455C483.957 298.25 486.708 295.349 490.339 290.385C493.31 286.414 496.611 281.985 503.213 281.985H503.433C510.475 282.443 514.326 285.65 517.737 288.552C521.038 291.378 524.009 293.821 529.291 293.821C529.291 293.821 529.511 293.821 529.621 293.821C535.233 293.821 537.104 292.447 539.524 290.614C542.055 288.705 545.136 286.414 552.398 286.414H552.618C559 286.567 562.191 288.247 565.052 289.85C567.913 291.378 570.334 292.676 576.056 292.752C583.978 292.981 585.629 291.607 587.61 289.927C589.81 288.094 592.451 285.727 600.924 285.65C605.985 285.65 610.717 287.559 615.338 289.392C618.86 290.767 622.491 292.218 625.132 292.218L646.148 290.385L646.808 294.203L625.462 296.036C620.95 296.036 616.879 294.509 612.477 292.752C608.406 291.149 604.335 289.545 600.704 289.469C594.982 289.469 593.662 290.69 591.791 292.294C588.82 294.814 585.629 296.952 575.726 296.57C568.243 296.494 564.722 294.585 561.531 292.829C558.89 291.454 556.91 290.309 552.398 290.232H552.178C547.337 290.232 545.686 291.454 543.375 293.21C540.735 295.196 537.434 297.639 529.511 297.639C529.401 297.639 529.181 297.639 529.071 297.639C521.258 297.639 516.967 294.05 513.336 290.919C510.255 288.247 507.504 285.956 502.993 285.727C500.132 285.727 498.151 288.094 495.18 292.065C491.769 296.647 487.368 302.298 478.125 301.534C477.905 301.534 477.795 301.534 477.575 301.534C468.442 301.534 466.901 294.661 465.471 288.552C463.82 281.298 462.28 276.945 455.568 276.716C450.836 276.487 449.406 279.923 447.425 287.101C445.554 293.974 443.244 302.527 431.25 302.68C431.14 302.68 431.03 302.68 430.81 302.68C419.916 302.68 414.745 295.349 409.683 288.247C405.172 281.909 400.88 275.876 393.288 275.799C386.796 276.105 383.055 283.589 379.423 290.767C375.022 299.549 370.4 308.56 359.287 308.56C359.067 308.56 358.847 308.56 358.517 308.56C347.403 308.56 342.122 299.625 336.95 290.996C332.108 282.901 327.157 274.578 318.244 274.578C318.024 274.578 317.804 274.578 317.584 274.578C307.681 274.578 302.729 283.054 297.557 292.065C292.166 301.458 286.334 311.08 273.79 310.621H273.57C257.945 310.621 254.534 299.93 251.563 290.538C248.482 280.992 246.061 275.112 237.698 274.883C229.006 275.036 223.394 283.207 217.452 291.912C210.63 301.992 203.477 312.378 189.503 312.378L189.613 312.454Z" fill="#90A4AE"/>
<mask id="path-94-inside-1_788_3839" fill="white">
<path d="M153.191 291.836H646.808H153.191Z"/>
</mask>
<path d="M153.191 291.836H646.808H153.191Z" fill="#9D9683"/>
<path d="M153.191 291.936H646.808V291.736H153.191V291.936ZM646.808 291.736H153.191V291.936H646.808V291.736Z" fill="#999894" mask="url(#path-94-inside-1_788_3839)"/>
<path d="M643.524 99.7734H153.293V261.909H643.524V99.7734Z" fill="#90A4AE"/>
<path d="M643.408 224.684H153.195V262.13H643.408V224.684Z" fill="#88C872"/>
<path d="M643.408 183.832H153.195V221.279H643.408V183.832Z" fill="#D2A42D"/>
<path d="M643.408 139.574H153.195V180.425H643.408V139.574Z" fill="#D49C69"/>
<path d="M643.408 98.7227H153.195V139.574H643.408V98.7227Z" fill="#BF7878"/>
<path d="M153.293 137.102H643.524V140.475H153.293V137.102Z" fill="#607D8B"/>
<path d="M153.293 179.902H643.524V183.276H153.293V179.902Z" fill="#607D8B"/>
<path d="M153.293 221.508H643.524V224.956H153.293V221.508Z" fill="#607D8B"/>
<path d="M222.105 99.7734H220.531V261.909H222.105V99.7734Z" fill="#607D8B"/>
<path d="M231.625 99.7734H230.051V261.909H231.625V99.7734Z" fill="#607D8B"/>
<path d="M241.223 99.7734H239.648V261.909H241.223V99.7734Z" fill="#607D8B"/>
<path d="M250.742 99.7734H249.168V261.909H250.742V99.7734Z" fill="#607D8B"/>
<path d="M260.336 99.7734H258.762V261.909H260.336V99.7734Z" fill="#607D8B"/>
<path d="M269.855 99.7734H268.281V261.909H269.855V99.7734Z" fill="#607D8B"/>
<path d="M279.375 99.7734H277.801V261.909H279.375V99.7734Z" fill="#607D8B"/>
<path d="M288.969 99.7734H287.395V261.909H288.969V99.7734Z" fill="#607D8B"/>
<path d="M298.488 99.7734H296.914V261.909H298.488V99.7734Z" fill="#607D8B"/>
<path d="M308.082 99.7734H306.508V261.909H308.082V99.7734Z" fill="#607D8B"/>
<path d="M317.601 99.7734H316.027V261.909H317.601V99.7734Z" fill="#607D8B"/>
<path d="M327.121 99.7734H325.547V261.909H327.121V99.7734Z" fill="#607D8B"/>
<path d="M336.719 99.7734H335.145V261.909H336.719V99.7734Z" fill="#607D8B"/>
<path d="M346.238 99.7734H344.664V261.909H346.238V99.7734Z" fill="#607D8B"/>
<path d="M355.832 99.7734H354.258V261.909H355.832V99.7734Z" fill="#607D8B"/>
<path d="M365.352 99.7734H363.777V261.909H365.352V99.7734Z" fill="#607D8B"/>
<path d="M374.875 99.7734H373.301V261.909H374.875V99.7734Z" fill="#607D8B"/>
<path d="M384.465 99.7734H382.891V261.909H384.465V99.7734Z" fill="#607D8B"/>
<path d="M393.988 99.7734H392.414V261.909H393.988V99.7734Z" fill="#607D8B"/>
<path d="M403.578 99.7734H402.004V261.909H403.578V99.7734Z" fill="#607D8B"/>
<path d="M413.101 99.7734H411.527V261.909H413.101V99.7734Z" fill="#607D8B"/>
<path d="M422.621 99.7734H421.047V261.909H422.621V99.7734Z" fill="#607D8B"/>
<path d="M432.215 99.7734H430.641V261.909H432.215V99.7734Z" fill="#607D8B"/>
<path d="M441.734 99.7734H440.16V261.909H441.734V99.7734Z" fill="#607D8B"/>
<path d="M451.332 99.7734H449.758V261.909H451.332V99.7734Z" fill="#607D8B"/>
<path d="M460.852 99.7734H459.277V261.909H460.852V99.7734Z" fill="#607D8B"/>
<path d="M470.371 99.7734H468.797V261.909H470.371V99.7734Z" fill="#607D8B"/>
<path d="M479.965 99.7734H478.391V261.909H479.965V99.7734Z" fill="#607D8B"/>
<path d="M489.484 99.7734H487.91V261.909H489.484V99.7734Z" fill="#607D8B"/>
<path d="M499.078 99.7734H497.504V261.909H499.078V99.7734Z" fill="#607D8B"/>
<path d="M508.598 99.7734H507.023V261.909H508.598V99.7734Z" fill="#607D8B"/>
<path d="M518.117 99.7734H516.543V261.909H518.117V99.7734Z" fill="#607D8B"/>
<path d="M527.715 99.7734H526.141V261.909H527.715V99.7734Z" fill="#607D8B"/>
<path d="M537.234 99.7734H535.66V261.909H537.234V99.7734Z" fill="#607D8B"/>
<path d="M546.828 99.7734H545.254V261.909H546.828V99.7734Z" fill="#607D8B"/>
<path d="M556.348 99.7734H554.773V261.909H556.348V99.7734Z" fill="#607D8B"/>
<path d="M565.867 99.7734H564.293V261.909H565.867V99.7734Z" fill="#607D8B"/>
<path d="M575.465 99.7734H573.891V261.909H575.465V99.7734Z" fill="#607D8B"/>
<path d="M584.98 99.7734H583.406V261.909H584.98V99.7734Z" fill="#607D8B"/>
<path d="M594.574 99.7734H593V261.909H594.574V99.7734Z" fill="#607D8B"/>
<path d="M604.098 99.7734H602.523V261.909H604.098V99.7734Z" fill="#607D8B"/>
<path d="M613.691 99.7734H612.117V261.909H613.691V99.7734Z" fill="#607D8B"/>
<path d="M623.211 99.7734H621.637V261.909H623.211V99.7734Z" fill="#607D8B"/>
<path d="M632.73 99.7734H631.156V261.909H632.73V99.7734Z" fill="#607D8B"/>
<path d="M161.091 124.361C163.326 124.361 165.139 122.549 165.139 120.313C165.139 118.078 163.326 116.266 161.091 116.266C158.855 116.266 157.043 118.078 157.043 120.313C157.043 122.549 158.855 124.361 161.091 124.361Z" fill="#76FF03"/>
<path d="M178.183 105.32H172.186C170.53 105.32 169.188 106.663 169.188 108.319V130.506C169.188 132.162 170.53 133.505 172.186 133.505H178.183C179.838 133.505 181.181 132.162 181.181 130.506V108.319C181.181 106.663 179.838 105.32 178.183 105.32Z" fill="#546E7A"/>
<path d="M173.309 105.32H176.982C177.657 105.32 178.257 105.845 178.257 106.595V115.74C178.257 116.414 177.732 117.014 176.982 117.014H173.309C172.635 117.014 172.035 116.489 172.035 115.74V106.595C172.035 105.92 172.56 105.32 173.309 105.32Z" fill="#76FF03"/>
<path d="M195.347 105.32H189.35C187.694 105.32 186.352 106.663 186.352 108.319V130.506C186.352 132.162 187.694 133.505 189.35 133.505H195.347C197.003 133.505 198.345 132.162 198.345 130.506V108.319C198.345 106.663 197.003 105.32 195.347 105.32Z" fill="#546E7A"/>
<path d="M190.474 105.32H194.146C194.821 105.32 195.421 105.845 195.421 106.595V115.74C195.421 116.414 194.896 117.014 194.146 117.014H190.474C189.799 117.014 189.199 116.489 189.199 115.74V106.595C189.199 105.92 189.724 105.32 190.474 105.32Z" fill="#FFC400"/>
<path d="M161.091 164.838C163.326 164.838 165.139 163.025 165.139 160.79C165.139 158.554 163.326 156.742 161.091 156.742C158.855 156.742 157.043 158.554 157.043 160.79C157.043 163.025 158.855 164.838 161.091 164.838Z" fill="#76FF03"/>
<path d="M178.183 145.797H172.186C170.53 145.797 169.188 147.139 169.188 148.795V170.983C169.188 172.639 170.53 173.981 172.186 173.981H178.183C179.838 173.981 181.181 172.639 181.181 170.983V148.795C181.181 147.139 179.838 145.797 178.183 145.797Z" fill="#546E7A"/>
<path d="M173.309 145.797H176.982C177.657 145.797 178.257 146.322 178.257 147.071V156.216C178.257 156.891 177.732 157.49 176.982 157.49H173.309C172.635 157.49 172.035 156.966 172.035 156.216V147.071C172.035 146.397 172.56 145.797 173.309 145.797Z" fill="#76FF03"/>
<path d="M195.347 145.797H189.35C187.694 145.797 186.352 147.139 186.352 148.795V170.983C186.352 172.639 187.694 173.981 189.35 173.981H195.347C197.003 173.981 198.345 172.639 198.345 170.983V148.795C198.345 147.139 197.003 145.797 195.347 145.797Z" fill="#546E7A"/>
<path d="M190.474 145.797H194.146C194.821 145.797 195.421 146.322 195.421 147.071V156.216C195.421 156.891 194.896 157.49 194.146 157.49H190.474C189.799 157.49 189.199 156.966 189.199 156.216V147.071C189.199 146.397 189.724 145.797 190.474 145.797Z" fill="#FFC400"/>
<path d="M161.091 206.888C163.326 206.888 165.139 205.076 165.139 202.841C165.139 200.605 163.326 198.793 161.091 198.793C158.855 198.793 157.043 200.605 157.043 202.841C157.043 205.076 158.855 206.888 161.091 206.888Z" fill="#76FF03"/>
<path d="M178.183 187.777H172.186C170.53 187.777 169.188 189.12 169.188 190.776V212.964C169.188 214.619 170.53 215.962 172.186 215.962H178.183C179.838 215.962 181.181 214.619 181.181 212.964V190.776C181.181 189.12 179.838 187.777 178.183 187.777Z" fill="#546E7A"/>
<path d="M173.309 187.777H176.982C177.657 187.777 178.257 188.302 178.257 189.052V198.197C178.257 198.871 177.732 199.471 176.982 199.471H173.309C172.635 199.471 172.035 198.946 172.035 198.197V189.052C172.035 188.377 172.56 187.777 173.309 187.777Z" fill="#76FF03"/>
<path d="M195.347 187.777H189.35C187.694 187.777 186.352 189.12 186.352 190.776V212.964C186.352 214.619 187.694 215.962 189.35 215.962H195.347C197.003 215.962 198.345 214.619 198.345 212.964V190.776C198.345 189.12 197.003 187.777 195.347 187.777Z" fill="#546E7A"/>
<path d="M190.474 187.777H194.146C194.821 187.777 195.421 188.302 195.421 189.052V198.197C195.421 198.871 194.896 199.471 194.146 199.471H190.474C189.799 199.471 189.199 198.946 189.199 198.197V189.052C189.199 188.377 189.724 187.777 190.474 187.777Z" fill="#FFC400"/>
<path d="M161.091 247.967C163.326 247.967 165.139 246.154 165.139 243.919C165.139 241.683 163.326 239.871 161.091 239.871C158.855 239.871 157.043 241.683 157.043 243.919C157.043 246.154 158.855 247.967 161.091 247.967Z" fill="#76FF03"/>
<path d="M178.183 228.926H172.186C170.53 228.926 169.188 230.268 169.188 231.924V254.112C169.188 255.768 170.53 257.11 172.186 257.11H178.183C179.838 257.11 181.181 255.768 181.181 254.112V231.924C181.181 230.268 179.838 228.926 178.183 228.926Z" fill="#546E7A"/>
<path d="M173.309 228.926H176.982C177.657 228.926 178.257 229.45 178.257 230.2V239.345C178.257 240.02 177.732 240.619 176.982 240.619H173.309C172.635 240.619 172.035 240.095 172.035 239.345V230.2C172.035 229.525 172.56 228.926 173.309 228.926Z" fill="#76FF03"/>
<path d="M195.347 228.926H189.35C187.694 228.926 186.352 230.268 186.352 231.924V254.112C186.352 255.768 187.694 257.11 189.35 257.11H195.347C197.003 257.11 198.345 255.768 198.345 254.112V231.924C198.345 230.268 197.003 228.926 195.347 228.926Z" fill="#546E7A"/>
<path d="M190.474 228.926H194.146C194.821 228.926 195.421 229.45 195.421 230.2V239.345C195.421 240.02 194.896 240.619 194.146 240.619H190.474C189.799 240.619 189.199 240.095 189.199 239.345V230.2C189.199 229.525 189.724 228.926 190.474 228.926Z" fill="#FFC400"/>
<path d="M222.328 103.52H238.819V109.441H222.328V103.52Z" fill="#E6EE9C"/>
<path d="M238.297 111.316H254.863V117.238H238.297V111.316Z" fill="#E6EE9C"/>
<path d="M254.039 119.184H270.53V125.105H254.039V119.184Z" fill="#E6EE9C"/>
<path d="M270.602 127.207H287.092V133.204H270.602V127.207Z" fill="#E6EE9C"/>
<path d="M273 103.52H289.491V109.441H273V103.52Z" fill="#E6EE9C"/>
<path d="M289.043 111.316H305.534V117.238H289.043V111.316Z" fill="#E6EE9C"/>
<path d="M304.711 119.184H321.277V125.105H304.711V119.184Z" fill="#E6EE9C"/>
<path d="M321.273 127.207H337.764V133.204H321.273V127.207Z" fill="#E6EE9C"/>
<path d="M342.715 127.207H359.206V133.204H342.715V127.207Z" fill="#E6EE9C"/>
<path d="M365.426 127.207H381.917V133.204H365.426V127.207Z" fill="#E6EE9C"/>
<path d="M386.641 127.207H403.132V133.204H386.641V127.207Z" fill="#E6EE9C"/>
<path d="M402.156 119.184H418.647V125.105H402.156V119.184Z" fill="#E6EE9C"/>
<path d="M417.375 127.207H433.941V133.204H417.375V127.207Z" fill="#E6EE9C"/>
<path d="M433.113 119.184H449.604V125.105H433.113V119.184Z" fill="#E6EE9C"/>
<path d="M448.406 111.316H464.897V117.238H448.406V111.316Z" fill="#E6EE9C"/>
<path d="M464.898 119.184H481.389V125.105H464.898V119.184Z" fill="#E6EE9C"/>
<path d="M464.898 119.184H481.389V125.105H464.898V119.184Z" fill="#E6EE9C"/>
<path d="M479.59 111.316H496.081V117.238H479.59V111.316Z" fill="#E6EE9C"/>
<path d="M349.234 103.52H365.725V109.441H349.234V103.52Z" fill="#E6EE9C"/>
<path d="M494.43 103.52H510.996V109.441H494.43V103.52Z" fill="#E6EE9C"/>
<path d="M516.395 103.52H532.885V109.441H516.395V103.52Z" fill="#E6EE9C"/>
<path d="M532.359 111.316H548.925V117.238H532.359V111.316Z" fill="#E6EE9C"/>
<path d="M548.102 119.184H564.592V125.105H548.102V119.184Z" fill="#E6EE9C"/>
<path d="M564.664 127.207H581.155V133.204H564.664V127.207Z" fill="#E6EE9C"/>
<path d="M567.066 103.52H583.557V109.441H567.066V103.52Z" fill="#E6EE9C"/>
<path d="M583.109 111.316H599.6V117.238H583.109V111.316Z" fill="#E6EE9C"/>
<path d="M598.773 119.184H615.264V125.105H598.773V119.184Z" fill="#E6EE9C"/>
<path d="M615.34 127.207H631.831V133.204H615.34V127.207Z" fill="#E6EE9C"/>
<path d="M327.496 145.195H401.855V151.117H327.496V145.195Z" fill="#B2EBF2"/>
<path d="M280.797 152.988H314.079V158.91H280.797V152.988Z" fill="#B2EBF2"/>
<path d="M240.094 160.934H270.527V166.855H240.094V160.934Z" fill="#B2EBF2"/>
<path d="M221.504 168.957H254.111V174.879H221.504V168.957Z" fill="#B2EBF2"/>
<path d="M281.547 168.957H314.079V174.879H281.547V168.957Z" fill="#B2EBF2"/>
<path d="M303.059 160.934H333.567V166.855H303.059V160.934Z" fill="#B2EBF2"/>
<path d="M344.066 160.934H374.5V166.855H344.066V160.934Z" fill="#B2EBF2"/>
<path d="M387.09 160.934H417.598V166.855H387.09V160.934Z" fill="#B2EBF2"/>
<path d="M421.945 168.957H437.387V174.879H421.945V168.957Z" fill="#B2EBF2"/>
<path d="M437.012 160.934H452.153V166.855H437.012V160.934Z" fill="#B2EBF2"/>
<path d="M450.656 152.988H468.197V158.91H450.656V152.988Z" fill="#B2EBF2"/>
<path d="M466.848 145.195H485.288V151.117H466.848V145.195Z" fill="#B2EBF2"/>
<path d="M487.984 152.988H505.525V158.91H487.984V152.988Z" fill="#B2EBF2"/>
<path d="M487.984 168.957H505.6V174.879H487.984V168.957Z" fill="#B2EBF2"/>
<path d="M506.5 145.195H524.865V151.117H506.5V145.195Z" fill="#B2EBF2"/>
<path d="M506.273 160.934H524.638V166.855H506.273V160.934Z" fill="#B2EBF2"/>
<path d="M529.512 152.988H547.127V158.91H529.512V152.988Z" fill="#B2EBF2"/>
<path d="M529.586 168.957H547.201V174.879H529.586V168.957Z" fill="#B2EBF2"/>
<path d="M548.031 145.195H566.471V151.117H548.031V145.195Z" fill="#B2EBF2"/>
<path d="M547.879 160.934H566.244V166.855H547.879V160.934Z" fill="#B2EBF2"/>
<path d="M567.965 152.988H585.505V158.91H567.965V152.988Z" fill="#B2EBF2"/>
<path d="M567.965 168.957H585.58V174.879H567.965V168.957Z" fill="#B2EBF2"/>
<path d="M586.406 145.195H604.846V151.117H586.406V145.195Z" fill="#B2EBF2"/>
<path d="M586.254 160.934H604.619V166.855H586.254V160.934Z" fill="#B2EBF2"/>
<path d="M607.395 168.957H613.316V174.879H607.395V168.957Z" fill="#B2EBF2"/>
<path d="M613.164 160.934H619.011V166.855H613.164V160.934Z" fill="#B2EBF2"/>
<path d="M618.414 152.988H625.085V158.91H618.414V152.988Z" fill="#B2EBF2"/>
<path d="M624.633 145.195H631.679V151.117H624.633V145.195Z" fill="#B2EBF2"/>
<path d="M234.699 184.621V191.442H232.525V194.291H230.351V196.615H228.177V198.114H225.779V200.962H223.68V205.235H225.779V208.533H228.177V209.957H230.351V212.281H232.525V214.755H234.699V221.126H237.172V214.755H239.346V212.281H241.52V209.957H243.694V208.533H246.092V205.235H248.191V204.185H250.515V203.736H252.839V204.185H255.162V205.235H257.261V208.533H259.66V209.957H262.059V204.185H264.157V205.235H266.256V208.533H268.655V209.957H271.054V204.935H272.928V207.559H275.326V208.683H277.5V210.557H279.749V212.506H281.923V217.603H284.396V212.506H286.57V210.557H288.744V208.683H290.918V207.559H293.316V204.935H295.34V214.68H297.739V221.051H299.988V214.68H302.162V212.206H304.41V209.882H306.584V208.458H308.983V205.16H311.082V204.11H313.405V203.661H315.729V204.11H317.978V205.16H320.077V208.458H322.475V209.882H324.874V204.11H326.973V205.16H329.072V208.458H331.47V209.882H335.143V208.458H337.542V205.16H339.641V204.11H341.74V209.882H344.139V208.458H346.537V205.16H348.636V204.11H350.96V203.661H353.284V204.11H355.607V205.16H359.58V204.11H361.904V203.661H364.227V204.11H366.476V205.16H368.575V208.458H370.974V209.882H372.998V217.603H375.546V205.16H377.57V208.458H379.969V209.882H383.642V208.458H386.04V205.16H388.139V204.11H390.238V209.882H392.637V208.458H395.036V205.16H397.134V204.11H399.383V203.661H401.707V205.16H403.806V208.458H406.354V214.605H408.528V220.976H410.777V212.131H412.951V214.605H415.125V220.976H417.373V214.605H419.772V204.86H421.796V207.484H424.194V208.608H426.368V210.482H428.617V212.431H430.791V217.528H433.265V212.431H435.438V210.482H437.687V208.608H439.861V207.484H442.26V204.86H444.134V209.882H446.532V208.458H448.931V205.16H451.03V204.11H453.129V209.882H455.527V208.458H457.926V205.16H460.025V204.11H462.274V203.661H464.597V204.11H466.921V205.16H469.02V208.458H471.419V209.882H473.592V212.206H475.766V214.68H477.94V221.051H480.414V214.68H482.587V212.206H484.836V209.882H487.01V208.458H489.409V205.16H491.358V214.68H493.906V204.935H495.93V207.559H498.329V208.683H500.503V210.557H502.676V212.506H504.85V217.603H507.324V212.506H509.498V210.557H511.672V208.683H513.845V207.559H516.244V204.935H518.118V216.629H520.517V213.855H522.915V207.184H525.014V205.16H527.113V216.629H529.512V213.855H531.91V207.184H533.934V205.16H536.258V204.185H538.582V205.16H540.905V207.184H542.929V213.855H545.478V204.185H547.277V203.736H549.601V204.185H551.924V205.235H554.023V208.533H556.422V209.957H558.821V204.185H560.919V205.235H563.018V208.533H565.417V209.957H569.09V208.533H571.489V205.235H573.587V204.185H575.686V209.957H578.085V208.533H580.484V205.235H582.583V204.185H584.831V203.736H587.155V204.185H589.479V205.235H593.527V204.185H595.775V203.736H598.099V204.185H600.348V205.235H602.522V204.935H604.47V207.559H606.869V208.683H608.968V210.557H611.217V212.506H613.391V217.603H615.864V212.506H618.038V210.557H620.287V208.683H622.461V207.559H624.859V204.935H626.958V204.185H628.907V205.235H632.955V200.962H628.907V202.236H626.958V201.562H624.859V199.313H622.461V198.114H620.287V196.315H618.038V194.066H615.864V188.669H615.639H613.391V194.066H611.217V196.315H608.968V198.114H606.869V199.313H604.47V201.562H602.522V200.962H600.348V202.236H598.099V202.686H595.775V202.236H593.527V200.962H589.479V202.236H587.155V202.686H584.831V202.236H582.583V200.962H580.484V198.114H578.085V196.615H575.686V202.236H573.587V200.962H571.489V198.114H569.09V196.615H565.417V198.114H563.018V200.962H560.919V202.236H558.821V196.615H556.422V198.114H554.023V200.962H551.924V202.236H549.601V202.686H547.277V202.236H545.478V193.017H542.929V198.713H540.905V201.187H538.582V202.012H536.258V201.187H533.934V198.713H531.91V193.017H529.512V190.018H527.113V201.262H525.014V198.788H522.915V193.091H520.517V190.093H518.118V201.712H516.244V199.463H513.845V198.264H511.672V196.465H509.498V194.216H507.324V188.819H507.099H504.85V194.216H502.676V196.465H500.503V198.264H498.329V199.463H495.93V201.712H493.906V191.592H491.358V201.112H489.409V198.264H487.01V196.764H484.836V194.441H482.587V191.592H480.414V184.771H480.189H477.94V191.592H475.766V194.441H473.592V196.764H471.419V198.264H469.02V201.112H466.921V202.386H464.672V202.836H462.349V202.386H460.1V201.112H458.001V198.264H455.602V196.764H453.204V202.386H451.105V201.112H449.006V198.264H446.607V196.764H444.209V201.712H442.335V199.463H439.936V198.264H437.762V196.465H435.513V194.216H433.339V188.819H433.115H430.866V194.216H428.692V196.465H426.443V198.264H424.27V199.463H421.871V201.712H419.847V191.592H417.448V184.771H415.199V191.592H413.026V194.441H410.852V184.771H408.603V191.592H406.429V198.264H403.881V201.112H401.782V202.761H399.458V202.311H397.134V201.037H395.036V198.189H392.637V196.689H390.238V202.311H388.139V201.037H386.04V198.189H383.642V196.689H379.969V198.189H377.57V201.037H375.546V189.344H372.998V196.689H370.974V198.189H368.575V201.037H366.476V202.311H364.153V202.761H361.829V202.311H359.505V201.037H355.532V202.311H353.209V202.761H350.885V202.311H348.561V201.037H346.462V198.189H344.064V196.689H341.665V202.311H339.566V201.037H337.467V198.189H335.069V196.689H331.396V198.189H328.997V201.037H326.898V202.311H324.799V196.689H322.4V198.189H320.002V201.037H317.903V202.311H315.654V202.761H313.33V202.311H311.007V201.037H308.908V198.189H306.509V196.689H304.41V194.366H302.162V191.517H299.988V184.696H297.739V191.517H295.34V201.637H293.316V199.388H290.918V198.189H288.744V196.39H286.57V194.141H284.396V188.744H284.171H281.923V194.141H279.749V196.39H277.5V198.189H275.326V199.388H272.928V201.637H271.054V196.689H268.655V198.189H266.256V201.037H264.157V202.311H262.059V196.689H259.66V198.189H257.261V201.037H255.162V202.311H252.839V202.761H250.515V202.311H248.266V201.037H246.167V198.189H243.769V196.689H241.595V194.366H239.421V191.517H237.247V184.696H237.022H234.774L234.699 184.621Z" fill="#F0F4C3"/>
<path d="M360.932 231.847V235.82H357.858V239.718H354.26V241.367H351.337V242.342H348.114V242.117H344.891V241.367H341.967V239.718H338.594V238.819H335.146V242.042H332.148V241.292H329.224V239.643H325.851V238.744H320.679V239.643H317.306V241.292H314.457V234.471H310.859V238.744H307.936V239.643H304.563V241.292H301.639V242.042H298.416V242.267H295.118V242.042H291.895V241.292H286.198V242.042H282.974V242.267H279.676V242.042H276.453V241.292H273.53V239.643H270.157V238.744H266.708V241.967H263.71V241.217H260.787V239.568H257.414V238.669H252.241V239.568H248.868V241.217H245.945V241.967H242.946V238.744H239.498V239.643H236.125V241.292H233.202V242.042H229.979V242.267H226.605V242.866H229.979V243.166H233.202V243.766H236.125V245.715H239.498V246.539H242.946V243.241H245.945V243.841H248.868V245.79H252.241V246.614H257.414V245.79H260.787V243.841H263.71V243.241H266.708V246.539H270.157V245.715H273.53V243.766H276.453V243.166H279.676V242.866H282.974V243.166H286.198V243.766H291.895V243.166H295.118V242.866H298.416V243.166H301.639V243.766H304.563V245.715H307.936V246.539H310.859V251.037H314.457V243.841H317.306V245.79H320.679V246.614H325.851V245.79H329.224V243.841H332.148V243.241H335.146V246.539H338.594V245.715H341.967V243.766H344.891V243.166H348.114V242.866H351.337V243.766H354.26V245.715H357.858V249.313H360.932V252.986H364.08V247.889H367.153V249.313H370.227V252.986H373.375V249.313H376.748V243.616H379.596V245.19H382.97V245.865H385.968V246.914H389.116V248.039H392.19V250.962H395.638V248.039H398.711V246.914H401.859V245.865H404.858V245.19H408.231V243.616H410.854V246.539H414.302V245.715H417.676V243.766H420.599V243.166H423.597V246.464H427.045V245.64H430.419V243.691H433.342V243.091H436.565V242.791H439.863V243.091H443.087V243.691H446.01V245.64H449.383V246.464H452.382V247.814H455.53V249.238H458.603V252.911H462.051V249.238H465.125V247.814H468.273V246.464H471.271V245.64H474.644V243.691H477.418V249.163H481.016V243.466H483.864V245.04H487.237V245.715H490.236V246.764H493.384V247.889H496.457V250.812H499.905V247.889H502.979V246.764H506.127V245.715H509.125V245.04H512.499V243.466H515.122V250.212H518.57V248.563H521.943V244.665H524.867V243.466H527.865V250.137H531.313V248.488H534.686V244.59H537.61V243.391H540.833V242.866H544.131V243.391H547.354V244.59H550.278V248.488H553.951V242.866H556.499V242.567H559.798V242.866H563.021V243.466H565.944V245.415H569.317V246.24H572.765V242.941H575.764V243.541H578.687V245.49H582.06V246.315H587.232V245.49H590.606V243.541H593.529V242.941H596.527V246.24H599.976V245.415H603.349V243.466H606.272V242.866H609.495V242.567H612.793V242.866H616.017V243.466H621.714V242.866H624.937V242.567H628.235V242.866H631.908V241.742H628.235V241.967H624.937V241.742H621.714V240.992H616.017V241.742H612.793V241.967H609.495V241.742H606.272V240.992H603.349V239.343H599.976V238.444H596.527V241.667H593.529V240.917H590.606V239.268H587.232V238.369H582.06V239.268H578.687V240.917H575.764V241.667H572.765V238.444H569.317V239.343H565.944V240.992H563.021V241.742H559.798V241.967H556.499V241.742H553.951V236.345H550.278V239.643H547.354V241.067H544.131V241.592H540.833V241.067H537.61V239.643H534.686V236.345H531.313V234.621H527.865V241.142H524.867V239.718H521.943V236.42H518.57V234.696H515.122V241.442H512.499V240.168H509.125V239.493H506.127V238.444H502.979V237.095H499.905V233.946H499.606H496.457V237.095H493.384V238.444H490.236V239.493H487.237V240.168H483.864V241.442H481.016V235.595H477.418V241.067H474.644V239.418H471.271V238.519H468.273V237.17H465.125V235.52H462.051V231.548H458.603V235.52H455.53V237.17H452.382V238.519H449.383V239.418H446.01V241.067H443.087V241.817H439.863V242.042H436.565V241.817H433.342V241.067H430.419V239.418H427.045V238.519H423.597V241.742H420.599V240.992H417.676V239.343H414.302V238.444H410.854V241.292H408.231V240.018H404.858V239.343H401.859V238.294H398.711V236.945H395.638V233.796H395.338H392.19V236.945H389.116V238.294H385.968V239.343H382.97V240.018H379.596V241.292H376.748V235.446H373.375V231.473H370.227V235.446H367.153V237.095H364.08V231.473H360.932V231.847Z" fill="#3F51B5"/>
<path d="M653.62 27.5469H27.4375V91.6756H653.62V27.5469Z" fill="#90A4AE"/>
<path d="M653.62 27.2344H27.4375V57.8727H653.62V27.2344Z" fill="#B0BEC5"/>
<path d="M176.529 30.8555H36.7201C34.6936 30.8555 33.0508 32.511 33.0508 34.5532V50.1742C33.0508 52.2164 34.6936 53.8719 36.7201 53.8719H176.529C178.556 53.8719 180.199 52.2164 180.199 50.1742V34.5532C180.199 32.511 178.556 30.8555 176.529 30.8555Z" fill="#78909C"/>
<path d="M195.102 33.9492C190.459 33.9492 186.715 37.7224 186.715 42.4012C186.715 47.0799 190.459 50.8531 195.102 50.8531C199.745 50.8531 203.489 47.0799 203.489 42.4012C203.489 37.7224 199.745 33.9492 195.102 33.9492ZM195.102 37.0432C198.022 37.0432 200.419 39.4581 200.419 42.4012C200.419 45.3443 198.022 47.7591 195.102 47.7591C192.181 47.7591 189.785 45.3443 189.785 42.4012C189.785 39.4581 192.181 37.0432 195.102 37.0432Z" fill="#ECEFF1"/>
<path d="M217.645 33.9492C213.002 33.9492 209.258 37.7224 209.258 42.4012C209.258 47.0799 213.002 50.8531 217.645 50.8531C222.288 50.8531 226.032 47.0799 226.032 42.4012C226.032 37.7224 222.288 33.9492 217.645 33.9492ZM217.645 37.0432C220.565 37.0432 222.962 39.4581 222.962 42.4012C222.962 45.3443 220.565 47.7591 217.645 47.7591C214.724 47.7591 212.328 45.3443 212.328 42.4012C212.328 39.4581 214.724 37.0432 217.645 37.0432Z" fill="#ECEFF1"/>
<path d="M309.974 31.6133H295.371C293.427 31.6133 291.852 33.2012 291.852 35.1601V50.1019C291.852 52.0608 293.427 53.6487 295.371 53.6487H309.974C311.917 53.6487 313.493 52.0608 313.493 50.1019V35.1601C313.493 33.2012 311.917 31.6133 309.974 31.6133Z" fill="#FFF59D"/>
<path d="M335.434 31.6133H320.832C318.888 31.6133 317.312 33.2012 317.312 35.1601V50.1019C317.312 52.0608 318.888 53.6487 320.832 53.6487H335.434C337.378 53.6487 338.954 52.0608 338.954 50.1019V35.1601C338.954 33.2012 337.378 31.6133 335.434 31.6133Z" fill="#FFF59D"/>
<path d="M360.97 31.6133H346.367C344.423 31.6133 342.848 33.2012 342.848 35.1601V50.1019C342.848 52.0608 344.423 53.6487 346.367 53.6487H360.97C362.913 53.6487 364.489 52.0608 364.489 50.1019V35.1601C364.489 33.2012 362.913 31.6133 360.97 31.6133Z" fill="#78909C"/>
<path d="M386.431 31.6133H371.828C369.884 31.6133 368.309 33.2012 368.309 35.1601V50.1019C368.309 52.0608 369.884 53.6487 371.828 53.6487H386.431C388.374 53.6487 389.95 52.0608 389.95 50.1019V35.1601C389.95 33.2012 388.374 31.6133 386.431 31.6133Z" fill="#78909C"/>
<path d="M412.192 31.6133H397.59C395.646 31.6133 394.07 33.2012 394.07 35.1601V50.1019C394.07 52.0608 395.646 53.6487 397.59 53.6487H412.192C414.136 53.6487 415.712 52.0608 415.712 50.1019V35.1601C415.712 33.2012 414.136 31.6133 412.192 31.6133Z" fill="#78909C"/>
<path d="M490.519 34.1758H447.011C446.101 34.1758 445.363 34.9191 445.363 35.836V49.5704C445.363 50.4873 446.101 51.2306 447.011 51.2306H490.519C491.428 51.2306 492.166 50.4873 492.166 49.5704V35.836C492.166 34.9191 491.428 34.1758 490.519 34.1758Z" fill="#616161"/>
<path d="M544.589 34.1758H501.081C500.171 34.1758 499.434 34.9191 499.434 35.836V49.5704C499.434 50.4873 500.171 51.2306 501.081 51.2306H544.589C545.499 51.2306 546.236 50.4873 546.236 49.5704V35.836C546.236 34.9191 545.499 34.1758 544.589 34.1758Z" fill="#ECEFF1"/>
<path d="M507.596 33.0469H499.434V52.1392H507.596V33.0469Z" fill="#616161"/>
<path d="M546.983 33.0469H535.227V52.1392H546.983V33.0469Z" fill="#616161"/>
<path d="M644.112 34.043H634.002C633.382 34.043 632.879 34.5498 632.879 35.1749V44.457C632.879 45.0821 633.382 45.5889 634.002 45.5889H644.112C644.732 45.5889 645.235 45.0821 645.235 44.457V35.1749C645.235 34.5498 644.732 34.043 644.112 34.043Z" fill="#607D8B"/>
<path d="M629.28 34.043H619.17C618.55 34.043 618.047 34.5498 618.047 35.1749V44.457C618.047 45.0821 618.55 45.5889 619.17 45.5889H629.28C629.9 45.5889 630.403 45.0821 630.403 44.457V35.1749C630.403 34.5498 629.9 34.043 629.28 34.043Z" fill="#607D8B"/>
<path d="M604.342 34.043H614.451C615.05 34.043 615.575 34.5712 615.575 35.1749V44.457C615.575 45.0607 615.05 45.5889 614.451 45.5889H604.342C603.743 45.5889 603.219 45.0607 603.219 44.457V35.1749C603.219 34.5712 603.743 34.043 604.342 34.043Z" fill="#607D8B"/>
<path d="M119.17 33.4219H38.2204C37.1452 33.4219 36.2734 34.3003 36.2734 35.3839V40.2136C36.2734 41.2972 37.1452 42.1757 38.2204 42.1757H119.17C120.246 42.1757 121.117 41.2972 121.117 40.2136V35.3839C121.117 34.3003 120.246 33.4219 119.17 33.4219Z" fill="#CFD8DC"/>
<path d="M43.0852 43.8398H38.3675C37.3749 43.8398 36.5703 44.6507 36.5703 45.651V50.1034C36.5703 51.1036 37.3749 51.9145 38.3675 51.9145H43.0852C44.0778 51.9145 44.8825 51.1036 44.8825 50.1034V45.651C44.8825 44.6507 44.0778 43.8398 43.0852 43.8398Z" fill="#CFD8DC"/>
<path d="M53.0462 43.8398H48.3285C47.3359 43.8398 46.5312 44.6507 46.5312 45.651V50.1034C46.5312 51.1036 47.3359 51.9145 48.3285 51.9145H53.0462C54.0387 51.9145 54.8434 51.1036 54.8434 50.1034V45.651C54.8434 44.6507 54.0387 43.8398 53.0462 43.8398Z" fill="#CFD8DC"/>
<path d="M63.0814 43.8398H58.3636C57.371 43.8398 56.5664 44.6507 56.5664 45.651V50.1034C56.5664 51.1036 57.371 51.9145 58.3636 51.9145H63.0814C64.0739 51.9145 64.8786 51.1036 64.8786 50.1034V45.651C64.8786 44.6507 64.0739 43.8398 63.0814 43.8398Z" fill="#CFD8DC"/>
<path d="M174.284 43.8398H169.567C168.574 43.8398 167.77 44.6507 167.77 45.651V50.1034C167.77 51.1036 168.574 51.9145 169.567 51.9145H174.284C175.277 51.9145 176.082 51.1036 176.082 50.1034V45.651C176.082 44.6507 175.277 43.8398 174.284 43.8398Z" fill="#CFD8DC"/>
<path d="M174.284 34.0273H169.567C168.574 34.0273 167.77 34.8382 167.77 35.8385V40.2909C167.77 41.2911 168.574 42.102 169.567 42.102H174.284C175.277 42.102 176.082 41.2911 176.082 40.2909V35.8385C176.082 34.8382 175.277 34.0273 174.284 34.0273Z" fill="#CFD8DC"/>
<path d="M637.143 63.5352C630.629 63.5352 625.387 68.9764 625.387 75.7391C625.387 80.092 627.633 84.0564 631.228 86.2329L632.725 83.5122C630.104 81.8799 628.457 78.9261 628.457 75.7391C628.457 70.7642 632.351 66.7222 637.143 66.7222C641.936 66.7222 645.83 70.7642 645.83 75.7391C645.83 78.9261 644.183 81.9576 641.487 83.5122L642.984 86.3106C646.654 84.1341 648.9 80.092 648.9 75.7391C648.9 68.9764 643.658 63.5352 637.143 63.5352Z" fill="#E6EE9C"/>
<path d="M637.22 68.7422C640.964 68.7422 643.96 71.8514 643.96 75.738C643.96 79.6246 640.964 82.7339 637.22 82.7339C633.476 82.7339 630.48 79.6246 630.48 75.738C630.48 71.8514 633.476 68.7422 637.22 68.7422Z" fill="#F5F5F5"/>
<path d="M640.739 71.1523C641.788 71.1523 642.611 72.0074 642.611 73.0956C642.611 74.1839 641.788 75.0389 640.739 75.0389C639.691 75.0389 638.867 74.1839 638.867 73.0956C638.867 72.0074 639.691 71.1523 640.739 71.1523Z" fill="#9E9E9E"/>
<path d="M608.69 63.5352C602.175 63.5352 596.934 68.9764 596.934 75.7391C596.934 80.092 599.18 84.0564 602.775 86.2329L604.272 83.5122C601.651 81.8799 600.004 78.9261 600.004 75.7391C600.004 70.7642 603.898 66.7222 608.69 66.7222C613.483 66.7222 617.377 70.7642 617.377 75.7391C617.377 78.9261 615.73 81.9576 613.034 83.5122L614.531 86.3106C618.201 84.1341 620.447 80.092 620.447 75.7391C620.447 68.9764 615.205 63.5352 608.69 63.5352Z" fill="#E6EE9C"/>
<path d="M608.689 68.7422C612.433 68.7422 615.428 71.8514 615.428 75.738C615.428 79.6246 612.433 82.7339 608.689 82.7339C604.945 82.7339 601.949 79.6246 601.949 75.738C601.949 71.8514 604.945 68.7422 608.689 68.7422Z" fill="#F5F5F5"/>
<path d="M605.317 71.1523C606.366 71.1523 607.19 72.0074 607.19 73.0956C607.19 74.1839 606.366 75.0389 605.317 75.0389C604.269 75.0389 603.445 74.1839 603.445 73.0956C603.445 72.0074 604.269 71.1523 605.317 71.1523Z" fill="#9E9E9E"/>
<path d="M579.632 63.5352C573.117 63.5352 567.875 68.9764 567.875 75.7391C567.875 80.092 570.122 84.0564 573.716 86.2329L575.214 83.5122C572.593 81.8799 570.945 78.9261 570.945 75.7391C570.945 70.7642 574.839 66.7222 579.632 66.7222C584.424 66.7222 588.318 70.7642 588.318 75.7391C588.318 78.9261 586.671 81.9576 583.975 83.5122L585.473 86.3106C589.142 84.1341 591.389 80.092 591.389 75.7391C591.389 68.9764 586.147 63.5352 579.632 63.5352Z" fill="#E6EE9C"/>
<path d="M579.634 68.7422C583.378 68.7422 586.374 71.8514 586.374 75.738C586.374 79.6246 583.378 82.7339 579.634 82.7339C575.89 82.7339 572.895 79.6246 572.895 75.738C572.895 71.8514 575.89 68.7422 579.634 68.7422Z" fill="#F5F5F5"/>
<path d="M579.259 69.6016C580.307 69.6016 581.131 70.4566 581.131 71.5449C581.131 72.6331 580.307 73.4882 579.259 73.4882C578.21 73.4882 577.387 72.6331 577.387 71.5449C577.387 70.4566 578.21 69.6016 579.259 69.6016Z" fill="#9E9E9E"/>
<path d="M550.804 63.5352C544.289 63.5352 539.047 68.9764 539.047 75.7391C539.047 80.092 541.293 84.0564 544.888 86.2329L546.386 83.5122C543.765 81.8799 542.117 78.9261 542.117 75.7391C542.117 70.7642 546.011 66.7222 550.804 66.7222C555.596 66.7222 559.49 70.7642 559.49 75.7391C559.49 78.9261 557.843 81.9576 555.147 83.5122L556.645 86.3106C560.314 84.1341 562.561 80.092 562.561 75.7391C562.561 68.9764 557.319 63.5352 550.804 63.5352Z" fill="#E6EE9C"/>
<path d="M550.88 68.7422C554.624 68.7422 557.62 71.8514 557.62 75.738C557.62 79.6246 554.624 82.7339 550.88 82.7339C547.136 82.7339 544.141 79.6246 544.141 75.738C544.141 71.8514 547.136 68.7422 550.88 68.7422Z" fill="#F5F5F5"/>
<path d="M546.759 75.6641C547.807 75.6641 548.631 76.5191 548.631 77.6074C548.631 78.6956 547.807 79.5507 546.759 79.5507C545.71 79.5507 544.887 78.6956 544.887 77.6074C544.887 76.5191 545.71 75.6641 546.759 75.6641Z" fill="#9E9E9E"/>
<path d="M500.183 63.5352C493.668 63.5352 488.426 68.9764 488.426 75.7391C488.426 80.092 490.672 84.0564 494.267 86.2329L495.764 83.5122C493.143 81.8799 491.496 78.9261 491.496 75.7391C491.496 70.7642 495.39 66.7222 500.183 66.7222C504.975 66.7222 508.869 70.7642 508.869 75.7391C508.869 78.9261 507.222 81.9576 504.526 83.5122L506.024 86.3106C509.693 84.1341 511.939 80.092 511.939 75.7391C511.939 68.9764 506.698 63.5352 500.183 63.5352Z" fill="#FFEB3B"/>
<path d="M500.554 64.7812H499.581C498.919 64.7812 498.383 65.3381 498.383 66.025V77.5293C498.383 78.2162 498.919 78.773 499.581 78.773H500.554C501.216 78.773 501.753 78.2162 501.753 77.5293V66.025C501.753 65.3381 501.216 64.7812 500.554 64.7812Z" fill="#FFFDE7"/>
<path d="M471.276 63.5352C464.761 63.5352 459.52 68.9764 459.52 75.7391C459.52 80.092 461.766 84.0564 465.36 86.2329L466.858 83.5122C464.237 81.8799 462.59 78.9261 462.59 75.7391C462.59 70.7642 466.484 66.7222 471.276 66.7222C476.069 66.7222 479.963 70.7642 479.963 75.7391C479.963 78.9261 478.316 81.9576 475.62 83.5122L477.117 86.3106C480.787 84.1341 483.033 80.092 483.033 75.7391C483.033 68.9764 477.791 63.5352 471.276 63.5352Z" fill="#FFEB3B"/>
<path d="M478.891 69.4413L469.267 75.4535C468.736 75.7855 468.564 76.502 468.884 77.0537L469.463 78.0527C469.783 78.6045 470.473 78.7826 471.005 78.4506L480.629 72.4383C481.16 72.1063 481.332 71.3898 481.012 70.8381L480.433 69.8391C480.113 69.2873 479.423 69.1092 478.891 69.4413Z" fill="#FFFDE7"/>
<path d="M442.296 63.5352C435.781 63.5352 430.539 68.9764 430.539 75.7391C430.539 80.092 432.786 84.0564 436.38 86.2329L437.878 83.5122C435.257 81.8799 433.609 78.9261 433.609 75.7391C433.609 70.7642 437.503 66.7222 442.296 66.7222C447.088 66.7222 450.982 70.7642 450.982 75.7391C450.982 78.9261 449.335 81.9576 446.639 83.5122L448.137 86.3106C451.806 84.1341 454.053 80.092 454.053 75.7391C454.053 68.9764 448.811 63.5352 442.296 63.5352Z" fill="#FFEB3B"/>
<path d="M433.968 68.6169L433.26 69.5214C432.868 70.0209 432.941 70.7552 433.422 71.1616L442.135 78.5199C442.617 78.9263 443.324 78.8508 443.716 78.3513L444.424 77.4468C444.816 76.9473 444.743 76.2129 444.262 75.8065L435.549 68.4482C435.067 68.0418 434.36 68.1174 433.968 68.6169Z" fill="#FFFDE7"/>
<path d="M409.494 66.1797H275.901C275.28 66.1797 274.777 66.7017 274.777 67.3457V84.3689C274.777 85.0129 275.28 85.5349 275.901 85.5349H409.494C410.115 85.5349 410.618 85.0129 410.618 84.3689V67.3457C410.618 66.7017 410.115 66.1797 409.494 66.1797Z" fill="#FFFDE7"/>
<path d="M377.37 68.8984H278.897C278.236 68.8984 277.699 69.4553 277.699 70.1421V73.4846C277.699 74.1715 278.236 74.7283 278.897 74.7283H377.37C378.032 74.7283 378.568 74.1715 378.568 73.4846V70.1421C378.568 69.4553 378.032 68.8984 377.37 68.8984Z" fill="#CDDC39"/>
<path d="M362.543 76.7539H278.897C278.236 76.7539 277.699 77.3107 277.699 77.9976V81.3401C277.699 82.027 278.236 82.5838 278.897 82.5838H362.543C363.205 82.5838 363.741 82.027 363.741 81.3401V77.9976C363.741 77.3107 363.205 76.7539 362.543 76.7539Z" fill="#CDDC39"/>
<path d="M51.025 65.0117H34.4006C33.7803 65.0117 33.2773 65.5338 33.2773 66.1777V83.4342C33.2773 84.0781 33.7803 84.6001 34.4006 84.6001H51.025C51.6453 84.6001 52.1482 84.0781 52.1482 83.4342V66.1777C52.1482 65.5338 51.6453 65.0117 51.025 65.0117Z" fill="#455A64"/>
<path d="M74.8375 65.0117H58.2131C57.5928 65.0117 57.0898 65.5338 57.0898 66.1777V83.4342C57.0898 84.0781 57.5928 84.6001 58.2131 84.6001H74.8375C75.4578 84.6001 75.9607 84.0781 75.9607 83.4342V66.1777C75.9607 65.5338 75.4578 65.0117 74.8375 65.0117Z" fill="#455A64"/>
<path d="M98.7241 65.0117H82.0998C81.4795 65.0117 80.9766 65.5338 80.9766 66.1777V83.4342C80.9766 84.0781 81.4795 84.6001 82.0998 84.6001H98.7241C99.3445 84.6001 99.8474 84.0781 99.8474 83.4342V66.1777C99.8474 65.5338 99.3445 65.0117 98.7241 65.0117Z" fill="#455A64"/>
<path d="M122.615 65.0117H105.99C105.37 65.0117 104.867 65.5338 104.867 66.1777V83.4342C104.867 84.0781 105.37 84.6001 105.99 84.6001H122.615C123.235 84.6001 123.738 84.0781 123.738 83.4342V66.1777C123.738 65.5338 123.235 65.0117 122.615 65.0117Z" fill="#455A64"/>
<path d="M146.427 65.0117H129.803C129.183 65.0117 128.68 65.5338 128.68 66.1777V83.4342C128.68 84.0781 129.183 84.6001 129.803 84.6001H146.427C147.048 84.6001 147.551 84.0781 147.551 83.4342V66.1777C147.551 65.5338 147.048 65.0117 146.427 65.0117Z" fill="#455A64"/>
<path d="M170.314 65.0117H153.69C153.069 65.0117 152.566 65.5338 152.566 66.1777V83.4342C152.566 84.0781 153.069 84.6001 153.69 84.6001H170.314C170.934 84.6001 171.437 84.0781 171.437 83.4342V66.1777C171.437 65.5338 170.934 65.0117 170.314 65.0117Z" fill="#455A64"/>
</svg>
