<svg width="30" height="33" viewBox="0 0 72 79" fill="none" xmlns="http://www.w3.org/2000/svg">
<path d="M70.1249 2.54738C68.0124 0.256065 64.5999 0.256065 62.4874 2.54738L35.9999 31.2182L9.51241 2.48863C7.39991 0.197312 3.9874 0.197312 1.8749 2.48863C-0.237598 4.77995 -0.237598 8.48131 1.8749 10.7726L28.3624 39.5022L1.8749 68.2318C-0.237598 70.5232 -0.237598 74.2245 1.8749 76.5158C3.9874 78.8072 7.39991 78.8072 9.51241 76.5158L35.9999 47.7862L62.4874 76.5158C64.5999 78.8072 68.0124 78.8072 70.1249 76.5158C72.2374 74.2245 72.2374 70.5232 70.1249 68.2318L43.6374 39.5022L70.1249 10.7726C72.1832 8.54006 72.1832 4.77995 70.1249 2.54738Z" fill="black"/>
</svg>
