<svg width="250" height="225" viewBox="0 0 175 125" fill="none" xmlns="http://www.w3.org/2000/svg">
<g clip-path="url(#clip0_753_6827)">
<path fill-rule="evenodd" clip-rule="evenodd" d="M13.8787 65.847L32.0072 57.4597L44.4949 83.9539C47.0327 89.3391 55.1519 86.5728 52.1778 80.2677L38.4146 51.076C35.7148 45.3503 40.2651 39.7686 44.0025 38.0401L49.564 35.467C51.7218 34.4685 54.5571 36.1086 58.4333 34.2852L59.5634 36.6848L47.7795 42.1388C45.126 43.3664 45.7803 48.1821 47.0195 50.8108L61.0174 80.5001C71.5059 102.745 38.3617 116.472 28.2863 95.6443L13.8721 65.8503L13.8787 65.847Z" fill="black"/>
<path d="M42.024 54.6992L38.3232 56.4111L39.3816 58.6566L43.0824 56.9446L42.024 54.6992Z" fill="black"/>
<path d="M38.2812 54.5558L36.2422 55.499L38.7462 60.8116L40.7852 59.8684L38.2812 54.5558Z" fill="black"/>
<path d="M45.2359 61.5068L41.5352 63.2188L42.5935 65.4642L46.2943 63.7522L45.2359 61.5068Z" fill="black"/>
<path d="M41.493 61.363L39.4541 62.3066L41.9591 67.6188L43.9979 66.6752L41.493 61.363Z" fill="black"/>
<path d="M48.4439 68.3183L44.7432 70.0303L45.8015 72.2757L49.5023 70.5638L48.4439 68.3183Z" fill="black"/>
<path d="M44.7021 68.1818L42.6631 69.125L45.1671 74.4376L47.2061 73.4943L44.7021 68.1818Z" fill="black"/>
<path d="M51.6559 75.1318L47.9551 76.8438L49.0134 79.0892L52.7142 77.3772L51.6559 75.1318Z" fill="black"/>
<path d="M47.9101 74.9933L45.8711 75.9365L48.3751 81.2491L50.4141 80.3059L47.9101 74.9933Z" fill="black"/>
<path fill-rule="evenodd" clip-rule="evenodd" d="M129.56 104.225L164.402 44.6697L117.472 15.501L100.741 87.1036L129.56 104.228V104.225ZM137.144 63.9322C141.354 69.5728 140.151 77.528 134.457 81.6987C128.763 85.8694 120.733 84.6777 116.524 79.0371C112.314 73.3965 113.516 65.4414 119.21 61.2707C124.904 57.1 132.934 58.2916 137.144 63.9322ZM143.191 42.1228C145.904 45.7599 145.127 50.8832 141.459 53.5709C137.788 56.2587 132.616 55.4926 129.903 51.8555C127.19 48.2217 127.967 43.0951 131.635 40.4074C135.306 37.7196 140.478 38.489 143.191 42.1228Z" fill="black"/>
<path fill-rule="evenodd" clip-rule="evenodd" d="M83.2306 25.708H85.2001V32.2391C85.2001 32.6646 85.5504 33.0084 85.9767 33.0084C86.4062 33.0084 86.7532 32.6614 86.7532 32.2391V25.708H88.7227V32.2391C88.7227 32.6646 89.073 33.0084 89.4993 33.0084C89.9288 33.0084 90.2758 32.6614 90.2758 32.2391V25.7964C93.4845 26.3202 95.9529 29.0963 95.9529 32.4191V37.1365H89.4067C88.9805 37.1365 88.6302 37.4835 88.6302 37.9059C88.6302 38.3314 88.9805 38.6784 89.4067 38.6784H95.9529V40.6296H89.4067C88.9805 40.6296 88.6302 40.9766 88.6302 41.3989C88.6302 41.8245 88.9805 42.1715 89.4067 42.1715H95.9529V44.1226H89.4067C88.9805 44.1226 88.6302 44.4696 88.6302 44.8919C88.6302 45.3175 88.9805 45.6645 89.4067 45.6645H95.943C95.7514 49.1871 92.7806 52.009 89.1787 52.009H82.7713C79.1694 52.009 76.2019 49.1871 76.007 45.6645H82.5433C82.9696 45.6645 83.3198 45.3175 83.3198 44.8952C83.3198 44.4696 82.9696 44.1226 82.5433 44.1226H75.9971V42.1715H82.5433C82.9696 42.1715 83.3198 41.8245 83.3198 41.4022C83.3198 40.9766 82.9696 40.6296 82.5433 40.6296H75.9971V38.6784H82.5433C82.9696 38.6784 83.3198 38.3314 83.3198 37.9091C83.3198 37.4835 82.9696 37.1365 82.5433 37.1365H75.9971V32.4191C75.9971 29.0996 78.4655 26.3202 81.6709 25.7964V32.2391C81.6709 32.6646 82.0212 33.0084 82.4475 33.0084C82.877 33.0084 83.224 32.6614 83.224 32.2391V25.708H83.2306Z" fill="black"/>
<path fill-rule="evenodd" clip-rule="evenodd" d="M84.3973 49.5146H87.5564C88.7394 49.5146 89.7077 50.4738 89.7077 51.6458V51.9667L83.8488 52.0092L89.7077 52.8997V53.191C89.7077 54.363 88.7394 55.3222 87.5564 55.3222H84.3973C83.2143 55.3222 82.2461 54.363 82.2461 53.191V51.6491C82.2461 50.4771 83.2143 49.5179 84.3973 49.5179V49.5146Z" fill="black"/>
<path fill-rule="evenodd" clip-rule="evenodd" d="M83.9639 52.8701H87.9921V65.8373H83.9639V55.8263L87.3047 55.3189L83.9639 55.2927V52.8701Z" fill="black"/>
<path d="M121.259 61.9414H58.5098V105.934H121.259V61.9414Z" fill="#FEFDFA"/>
<path d="M119.98 63.2051H59.7852V104.67H119.98V63.2051Z" fill="black"/>
<path d="M72.8741 84.1865H64.2031V94.9243H72.8741V84.1865Z" fill="white"/>
<path d="M69.3748 66.5117H67.7061V102.853H69.3748V66.5117Z" fill="white"/>
<path d="M83.548 78.0742H74.877V88.812H83.548V78.0742Z" fill="white"/>
<path d="M80.0487 66.5117H78.3799V102.853H80.0487V66.5117Z" fill="white"/>
<path d="M94.2179 75.3936H85.5469V86.1313H94.2179V75.3936Z" fill="white"/>
<path d="M90.7186 66.5117H89.0498V102.853H90.7186V66.5117Z" fill="white"/>
<path d="M104.892 83.6885H96.2207V94.4262H104.892V83.6885Z" fill="white"/>
<path d="M101.389 66.5117H99.7197V102.853H101.389V66.5117Z" fill="white"/>
<path d="M115.562 70.9707H106.891V81.7085H115.562V70.9707Z" fill="white"/>
<path d="M112.062 66.5117H110.394V102.853H112.062V66.5117Z" fill="white"/>
<path fill-rule="evenodd" clip-rule="evenodd" d="M16.1527 43.4359C18.7302 42.6502 20.8219 43.1413 20.8219 44.5326C20.8219 45.924 18.7302 47.6885 16.1527 48.4742C13.5751 49.2599 11.4834 48.7688 11.4834 47.3775C11.4834 45.9862 13.5751 44.2216 16.1527 43.4359Z" fill="black"/>
<path d="M20.8182 29.2939H19.3643V44.5331H20.8182V29.2939Z" fill="black"/>
<path fill-rule="evenodd" clip-rule="evenodd" d="M27.7015 40.9574C30.279 40.1717 32.3707 40.6628 32.3707 42.0541C32.3707 43.4454 30.279 45.21 27.7015 45.9957C25.124 46.7814 23.0322 46.2903 23.0322 44.899C23.0322 43.5076 25.124 41.7431 27.7015 40.9574Z" fill="black"/>
<path fill-rule="evenodd" clip-rule="evenodd" d="M32.371 42.0545H30.917V27.7222L32.371 26.8154V42.0545Z" fill="black"/>
<path fill-rule="evenodd" clip-rule="evenodd" d="M19.3643 29.2936L32.3708 26.8154V28.3835L19.9921 31.0254L19.3643 29.2936Z" fill="black"/>
<path fill-rule="evenodd" clip-rule="evenodd" d="M65.7664 53.6689L62.6403 54.2418L59.5176 54.8147L61.5796 57.2078L63.6416 59.6042L64.7023 56.6382L65.7664 53.6689Z" fill="black"/>
<path fill-rule="evenodd" clip-rule="evenodd" d="M88.4647 106.324C122.584 106.324 150.411 105.62 150.411 104.756C150.411 103.891 122.584 103.188 88.4647 103.188C54.3457 103.188 26.5186 103.891 26.5186 104.756C26.5186 105.62 54.3457 106.324 88.4647 106.324Z" fill="black"/>
<path fill-rule="evenodd" clip-rule="evenodd" d="M53.1822 19.7435C56.381 17.9495 59.3088 17.9954 59.7218 19.8483C60.1316 21.7012 57.8713 24.6541 54.6725 26.4514C51.4738 28.2454 48.546 28.1995 48.1329 26.3466C47.7232 24.4937 49.9835 21.5408 53.1822 19.7468V19.7435Z" fill="black"/>
<path d="M55.5194 0.945064L53.583 1.36719L57.7829 20.2755L59.7192 19.8534L55.5194 0.945064Z" fill="black"/>
<path fill-rule="evenodd" clip-rule="evenodd" d="M53.3213 0.167177C61.5925 -1.57444 62.1245 10.8198 69.0177 12.8397C62.3657 14.2703 60.2211 3.25101 54.045 3.42452C53.8037 2.33765 53.5625 1.25405 53.3213 0.167177Z" fill="black"/>
<path fill-rule="evenodd" clip-rule="evenodd" d="M83.908 11.749L86.1319 13.3728L88.3525 14.9965L85.8213 16.0932L83.29 17.1867L83.5974 14.4662L83.908 11.749Z" fill="black"/>
<path fill-rule="evenodd" clip-rule="evenodd" d="M105.182 21.125L102.975 24.8734L98.6953 23.9306L101.61 27.1715L99.386 30.9101L103.398 29.1652L106.299 32.4193L105.866 28.098L109.881 26.3695L105.602 25.4463L105.182 21.125Z" fill="black"/>
<path fill-rule="evenodd" clip-rule="evenodd" d="M41.1181 28.596C41.2305 28.8644 41.1016 29.1754 40.8307 29.2867C40.5597 29.3981 40.2458 29.2704 40.1334 29.0019C39.8988 28.4454 39.6014 27.8136 39.2709 27.1195C38.2531 24.9654 36.9545 22.2155 36.5183 19.6784C36.0821 17.1347 36.4819 14.83 38.7587 13.5271C38.4911 12.9444 38.2333 12.2995 37.9657 11.6316C36.819 8.77695 35.5005 5.49997 33.3526 6.1809C33.0717 6.26929 32.7743 6.1187 32.6818 5.84044C32.5925 5.56217 32.7445 5.26754 33.0254 5.17915C36.1184 4.19703 37.6319 7.96507 38.9504 11.2453C39.2148 11.8968 39.4659 12.5286 39.7137 13.0819C40.2292 12.8887 40.8174 12.7349 41.4783 12.6236C42.0897 12.5188 42.4961 12.7578 42.7307 13.1703C42.8927 13.4551 42.9422 13.8185 42.9026 14.1884C42.8662 14.5256 42.7506 14.8791 42.5721 15.1869C42.2152 15.8023 41.6072 16.2345 40.8373 16.0511C40.2193 15.9038 39.7104 15.3244 39.2445 14.5092C37.5096 15.6026 37.2089 17.4621 37.5592 19.5082C37.9723 21.9045 39.2346 24.5792 40.2259 26.6743C40.5696 27.4011 40.8802 28.0624 41.1082 28.5993L41.1181 28.596ZM41.6601 13.6613C41.1082 13.753 40.6192 13.8839 40.1929 14.0444C40.4969 14.5878 40.7976 14.9512 41.095 15.0232C41.3131 15.0756 41.518 14.8988 41.6568 14.6598C41.7592 14.483 41.8253 14.2735 41.8484 14.0771C41.865 13.9134 41.8551 13.7726 41.8055 13.6842C41.7923 13.6613 41.746 13.6482 41.6601 13.6613Z" fill="black"/>
<path fill-rule="evenodd" clip-rule="evenodd" d="M108.222 7.44092C108.516 7.46056 108.738 7.71264 108.714 8.004C108.691 8.29536 108.44 8.5147 108.146 8.49178C105.116 8.27899 103.44 9.13997 102.71 10.3218C102.284 11.0125 102.172 11.8179 102.29 12.5774C102.413 13.3401 102.766 14.0505 103.279 14.5449C103.371 14.6365 103.474 14.7217 103.579 14.7969C103.877 13.9425 104.3 13.2092 105.096 12.8393C105.638 12.5872 106.091 12.7509 106.428 13.1274C106.547 13.2616 106.649 13.4253 106.725 13.602L106.748 13.6479C106.824 13.8312 106.877 14.0309 106.907 14.2306C107.009 14.9181 106.821 15.6547 106.263 15.9198C105.562 16.2505 104.891 16.3323 104.276 16.221L104.234 16.3912C103.91 17.6516 103.586 18.912 102.591 19.5406C102.343 19.6977 102.016 19.6257 101.858 19.3801C101.699 19.1346 101.772 18.8105 102.02 18.6534C102.651 18.254 102.925 17.1933 103.199 16.1326L103.272 15.8544C103.008 15.7038 102.763 15.5139 102.538 15.2978C101.871 14.6496 101.405 13.7232 101.25 12.7378C101.091 11.7491 101.243 10.6884 101.808 9.7718C102.727 8.28554 104.723 7.18884 108.229 7.43764L108.222 7.44092ZM104.571 15.1931C104.957 15.2389 105.374 15.1767 105.803 14.9737C105.889 14.9344 105.892 14.666 105.853 14.3877C105.836 14.2699 105.803 14.152 105.76 14.0505L105.747 14.0178C105.714 13.9425 105.674 13.877 105.631 13.8279C105.605 13.7985 105.575 13.7821 105.545 13.7952C105.079 14.0113 104.792 14.5449 104.571 15.1963V15.1931Z" fill="black"/>
<path fill-rule="evenodd" clip-rule="evenodd" d="M147.625 87.4863L145.415 91.2347L141.139 90.2952L144.053 93.5329L141.829 97.2715L145.841 95.5266L148.742 98.7806L148.306 94.4593L152.324 92.7308L148.045 91.8076L147.625 87.4863Z" fill="black"/>
<path fill-rule="evenodd" clip-rule="evenodd" d="M154.773 75.1836L156.997 76.8074L159.221 78.4311L156.69 79.5278L154.155 80.6245L154.466 77.904L154.773 75.1836Z" fill="black"/>
<path fill-rule="evenodd" clip-rule="evenodd" d="M168.196 79.2073C168.308 79.4758 168.179 79.7868 167.908 79.8981C167.637 80.0094 167.324 79.8817 167.211 79.6133C166.977 79.0535 166.679 78.4249 166.349 77.7309C165.331 75.5768 164.032 72.8269 163.596 70.2897C163.16 67.7461 163.56 65.4414 165.836 64.1384C165.569 63.5557 165.311 62.9075 165.043 62.243C163.897 59.3883 162.578 56.1113 160.43 56.7922C160.149 56.8806 159.852 56.73 159.763 56.4518C159.674 56.1735 159.826 55.8789 160.106 55.7905C163.199 54.8084 164.713 58.5764 166.031 61.8567C166.296 62.5081 166.547 63.14 166.795 63.6932C167.31 63.5001 167.898 63.3462 168.559 63.2349C169.171 63.1301 169.577 63.3691 169.812 63.7816C169.974 64.0664 170.023 64.4298 169.984 64.7997C169.947 65.1369 169.832 65.4905 169.653 65.7982C169.296 66.4137 168.688 66.8458 167.918 66.6625C167.3 66.5152 166.791 65.9357 166.326 65.1205C164.591 66.214 164.29 68.0734 164.64 70.1195C165.053 72.5159 166.316 75.1905 167.307 77.2857C167.651 78.0124 167.961 78.6737 168.189 79.2106L168.196 79.2073ZM168.738 64.2727C168.186 64.3643 167.697 64.4953 167.271 64.6557C167.575 65.1991 167.875 65.5625 168.173 65.6345C168.391 65.6869 168.596 65.5101 168.735 65.2711C168.837 65.0944 168.903 64.8848 168.926 64.6884C168.943 64.5247 168.933 64.384 168.883 64.2956C168.87 64.2694 168.824 64.2596 168.738 64.2727Z" fill="black"/>
<path fill-rule="evenodd" clip-rule="evenodd" d="M18.9842 84.5333C19.2783 84.553 19.4997 84.8051 19.4765 85.0964C19.4567 85.3878 19.2023 85.6071 18.9082 85.5842C15.8779 85.3714 14.2025 86.2324 13.4723 87.4142C13.046 88.105 12.9336 88.9103 13.0526 89.6698C13.1748 90.4326 13.5284 91.143 14.0373 91.6373C14.1298 91.729 14.2323 91.8141 14.338 91.8894C14.6354 91.0349 15.0584 90.3016 15.8548 89.9317C16.3967 89.6796 16.8495 89.8433 17.1865 90.2198C17.3055 90.354 17.4079 90.5177 17.4839 90.6977L17.507 90.7436C17.5831 90.9269 17.6359 91.1266 17.6657 91.3263C17.7681 92.0138 17.5797 92.7504 17.0213 93.0155C16.3207 93.3462 15.6499 93.428 15.0353 93.3167L14.9923 93.4869C14.6685 94.7473 14.3446 96.0077 13.35 96.6363C13.1021 96.7934 12.775 96.7214 12.6164 96.4758C12.4578 96.2303 12.5305 95.9062 12.7783 95.7491C13.4095 95.3497 13.6837 94.289 13.958 93.2283L14.0307 92.9501C13.7664 92.7995 13.5218 92.6096 13.2971 92.3935C12.6296 91.7453 12.1637 90.8189 12.0084 89.8335C11.8497 88.8448 12.0018 87.7841 12.5668 86.8675C13.4855 85.3812 15.4814 84.2845 18.9875 84.5333H18.9842ZM15.3327 92.2855C15.7193 92.3313 16.1357 92.2691 16.5653 92.0662C16.6512 92.0269 16.6578 91.7584 16.6148 91.4802C16.5983 91.3623 16.5653 91.2445 16.5223 91.143L16.5091 91.1102C16.476 91.0349 16.4364 90.9695 16.3934 90.9204C16.367 90.8909 16.3373 90.8745 16.3075 90.8876C15.8416 91.1037 15.5541 91.6373 15.3327 92.2855Z" fill="black"/>
<path fill-rule="evenodd" clip-rule="evenodd" d="M6.48673 56.1113L4.27602 59.8565L0 58.9169L2.91457 62.1579L0.69064 65.8964L4.7023 64.1516L7.60365 67.4024L7.16746 63.0843L11.1857 61.3558L6.9064 60.4294L6.48673 56.1113Z" fill="black"/>
</g>
<defs>
<clipPath id="clip0_753_6827">
<rect width="170" height="106.324" fill="white"/>
</clipPath>
</defs>
</svg>
