<svg width="392" height="503" viewBox="0 0 392 503" fill="none" xmlns="http://www.w3.org/2000/svg">
<path fill-rule="evenodd" clip-rule="evenodd" d="M284.073 160.046C291.975 160.046 298.538 166.475 298.538 174.511C298.538 182.547 292.109 188.976 284.073 188.976C276.037 188.976 269.608 182.547 269.608 174.511C269.608 166.475 276.037 160.046 284.073 160.046ZM300.413 175.314C291.574 196.074 274.564 212.146 253.402 219.78C253.67 199.824 255.545 187.234 273.225 162.724L274.028 161.921L274.564 161.519C283.136 153.483 291.172 151.34 298.672 155.358C301.753 157.635 303.36 162.858 302.958 167.144L300.547 175.448L300.413 175.314Z" fill="black"/>
<path fill-rule="evenodd" clip-rule="evenodd" d="M250.726 331.212C263.851 333.087 272.155 340.052 275.905 352.24C279.789 377.018 270.95 392.822 249.386 399.251H248.851L250.726 331.212Z" fill="black"/>
<path fill-rule="evenodd" clip-rule="evenodd" d="M234.927 331.212C234.123 354.517 233.454 377.955 232.918 401.26C205.863 401.394 180.282 387.197 166.487 362.954C147.468 319.426 200.372 285.407 234.525 271.611L237.204 270.942L236.132 296.791C226.489 298.13 217.248 302.148 209.479 308.443C197.559 318.22 190.327 332.417 189.657 347.82C188.05 368.58 203.854 384.25 223.007 383.446C211.221 378.223 204.658 365.499 207.337 352.775C210.015 340.186 221.266 331.078 234.257 331.212H235.061H234.927Z" fill="black"/>
<path fill-rule="evenodd" clip-rule="evenodd" d="M206.27 502.65H391.635C351.053 377.957 358.017 246.3 369.937 115.714H300.291C303.506 116.786 306.72 118.527 309.935 121.072C320.917 132.724 326.676 148.394 325.739 164.332L321.587 186.298L312.345 209.468C306.452 220.853 299.756 229.29 290.916 238.8C279.666 250.05 267.21 258.756 252.477 265.185L251.674 296.525H251.941C268.951 298.133 284.354 306.972 294.265 320.901C304.176 334.697 307.658 352.242 303.64 368.85C295.738 393.092 273.906 410.235 248.459 412.11C248.057 428.182 248.325 441.71 244.843 456.978C240.021 478.943 228.637 497.694 206.002 502.516" fill="black"/>
<path fill-rule="evenodd" clip-rule="evenodd" d="M107.549 160.053C115.451 160.053 122.014 166.482 122.014 174.518C122.014 182.554 115.585 188.983 107.549 188.983C99.513 188.983 93.0843 182.554 93.0843 174.518C93.0843 166.482 99.513 160.053 107.549 160.053ZM97.906 115.855H21.6975C33.6176 246.44 40.582 378.097 0 502.79H182.552C170.23 500.111 159.114 493.013 151.346 482.7C146.256 473.592 144.381 465.155 145.72 457.252L147.06 452.163L149.337 447.207V446.94L159.382 435.287C167.953 426.983 181.213 425.376 191.392 431.671C197.419 435.421 200.499 439.975 202.776 446.404L203.848 454.574C203.312 469.306 191.258 480.825 176.391 480.155C184.293 493.013 201.303 495.29 217.107 483.905C223.134 477.476 227.42 468.503 229.831 456.985L231.974 440.912L232.644 413.456C208 413.992 183.624 405.688 164.337 389.75C137.149 363.499 133.264 321.175 155.497 290.505C178.266 263.048 206.794 241.083 239.072 226.216C237.733 204.117 240.679 184.563 248.18 163.937C251.394 155.365 255.278 147.061 260.1 139.025C268.672 126.167 277.11 118.265 285.681 115.453H97.906V115.855Z" fill="black"/>
<path fill-rule="evenodd" clip-rule="evenodd" d="M293.725 174.382V97.9058C293.725 70.8511 282.742 46.3412 265.063 28.6619C247.383 10.9826 222.874 0 195.819 0C168.764 0 144.254 10.9826 126.575 28.6619C108.896 46.3412 97.9131 70.8511 97.9131 97.9058V174.382C97.9131 179.74 102.199 184.025 107.556 184.025C112.914 184.025 117.199 179.74 117.199 174.382V97.9058C117.199 76.2084 126.039 56.5202 140.236 42.3232C154.433 28.1261 174.122 19.2865 195.819 19.2865C217.516 19.2865 237.204 28.1261 251.401 42.3232C265.598 56.5202 274.438 76.2084 274.438 97.9058V174.382C274.438 179.74 278.724 184.025 284.081 184.025C289.439 184.025 293.725 179.74 293.725 174.382Z" fill="black"/>
</svg>
